<?xml version="1.0" encoding="UTF-8"?>
<svg version="1.1" xmlns="http://www.w3.org/2000/svg" width="1024" height="1024">
<path d="M0 0 C1.94960776 0.20970222 3.89972509 0.41590143 5.85229492 0.59594727 C14.31355517 1.38059315 22.25996994 2.84412464 30.44921875 5.09765625 C33.96200757 5.99034516 37.41363159 6.50165665 41 7 C43.08984375 7.578125 43.08984375 7.578125 44.9375 8.25 C47.89186546 9.29062701 50.85168391 10.26858683 53.8515625 11.16796875 C66.4977468 14.96893696 66.4977468 14.96893696 72.11328125 18.05078125 C74.35316876 19.17768118 76.62489601 19.94660441 79 20.75 C96.95907436 27.13052162 114.87676587 37.45150816 130.5 48.28125 C132.86898379 49.90992636 135.28259031 51.4014081 137.75 52.875 C139.35875 53.926875 139.35875 53.926875 141 55 C141 55.66 141 56.32 141 57 C141.53625 57.2475 142.0725 57.495 142.625 57.75 C145.5823982 59.30652537 148.29724051 61.03435673 151 63 C151 63.66 151 64.32 151 65 C151.721875 65.2475 152.44375 65.495 153.1875 65.75 C156.27606582 67.12269592 158.51011418 68.72353296 161 71 C161 71.66 161 72.32 161 73 C161.8353125 73.37125 161.8353125 73.37125 162.6875 73.75 C165.42410913 75.22924818 167.67650869 76.93467439 170 79 C170 79.66 170 80.32 170 81 C170.9590625 81.4021875 170.9590625 81.4021875 171.9375 81.8125 C174 83 174 83 175 86 C175.99 86.33 176.98 86.66 178 87 C178 87.66 178 88.32 178 89 C178.9590625 89.4021875 178.9590625 89.4021875 179.9375 89.8125 C182 91 182 91 183 94 C183.99 94.33 184.98 94.66 186 95 C186 95.66 186 96.32 186 97 C186.66 97 187.32 97 188 97 C191 100.46153846 191 100.46153846 191 103 C191.66 103 192.32 103 193 103 C194.5078125 104.6796875 194.5078125 104.6796875 196.125 106.875 C196.66382813 107.59429687 197.20265625 108.31359375 197.7578125 109.0546875 C199 111 199 111 199 113 C199.66 113 200.32 113 201 113 C202.5078125 114.64453125 202.5078125 114.64453125 204.125 116.8125 C204.66382813 117.52019531 205.20265625 118.22789062 205.7578125 118.95703125 C207 121 207 121 207 124 C207.66 124 208.32 124 209 124 C210.48046875 126.0546875 210.48046875 126.0546875 212.1875 128.875 C214.50418499 132.62764677 216.86750874 136.29115897 219.4375 139.875 C226.88664231 150.46674923 232.81195727 161.30352976 238.12451172 173.07275391 C238.89015178 174.75818689 239.67946541 176.43282493 240.47265625 178.10546875 C243.11405356 183.70329241 245.21254297 189.34063407 247.1015625 195.234375 C247.83869592 197.50346395 248.63217951 199.71662606 249.5 201.9375 C256.66516604 220.81347505 262.75564645 242.2769069 263.7890625 262.453125 C263.84027783 264.9904407 263.84027783 264.9904407 265 267 C265.22587948 269.17397397 265.39390217 271.35404835 265.53515625 273.53515625 C265.59989388 274.52776207 265.59989388 274.52776207 265.66593933 275.54042053 C265.80458483 277.71410323 265.93476797 279.88814976 266.0625 282.0625 C266.12878601 283.17803253 266.12878601 283.17803253 266.19641113 284.31610107 C269.4024649 339.1950702 269.4024649 339.1950702 264 350 C263.82803799 351.35485219 263.70342732 352.71592109 263.60546875 354.078125 C262.85261313 363.41992253 261.84418189 372.02050406 258.90234375 380.95703125 C257.90594683 384.04291778 257.90594683 384.04291778 257.50390625 387.51171875 C257.01082386 390.92507206 256.16244711 393.76059319 255 397 C254.54055688 398.40113136 254.08513463 399.80358486 253.6328125 401.20703125 C248.9430038 415.57557603 248.9430038 415.57557603 245.9453125 421.8984375 C244.02943959 426.15769214 242.54745935 430.5963258 241 435 C240.34 435 239.68 435 239 435 C238.93167969 435.96421875 238.86335937 436.9284375 238.79296875 437.921875 C238.07680221 442.8962953 235.71899477 446.90105481 233.3125 451.25 C232.85915283 452.08829346 232.40580566 452.92658691 231.9387207 453.7902832 C231.03959687 455.45009308 230.13599897 457.1074886 229.22753906 458.76220703 C228.19977134 460.6358186 227.18779929 462.5180833 226.1796875 464.40234375 C219.55176067 476.77331712 219.55176067 476.77331712 217 480 C216.34 480 215.68 480 215 480 C214.938125 480.66 214.87625 481.32 214.8125 482 C213.69621505 486.1216675 211.66238434 489.65750502 209 493 C208.34 493 207.68 493 207 493 C206.79375 493.825 206.5875 494.65 206.375 495.5 C204.86375495 499.34680559 202.8876476 502.05128078 200.33984375 505.265625 C198.93551917 506.96821495 198.93551917 506.96821495 198 509 C197.34 509 196.68 509 196 509 C195.64035156 510.05960938 195.64035156 510.05960938 195.2734375 511.140625 C193.79072165 514.46991336 191.90315039 516.90415518 189.625 519.75 C184.8515214 525.78874871 180.40069419 532.0194814 176.02392578 538.35058594 C175.30245361 539.38747559 175.30245361 539.38747559 174.56640625 540.4453125 C174.14302979 541.05906738 173.71965332 541.67282227 173.28344727 542.30517578 C171.96299457 544.0488666 170.64897974 545.56130022 169 547 C168.34 547 167.68 547 167 547 C166.92394531 547.54914062 166.84789062 548.09828125 166.76953125 548.6640625 C165.71648606 551.86061592 163.87009485 553.82447181 161.6875 556.375 C157.89926653 560.8652698 157.89926653 560.8652698 154.5625 565.6875 C154.046875 566.450625 153.53125 567.21375 153 568 C152.34 568 151.68 568 151 568 C150.62875 568.804375 150.62875 568.804375 150.25 569.625 C148.69347463 572.5823982 146.96564327 575.29724051 145 578 C144.34 578 143.68 578 143 578 C142.7525 578.70125 142.505 579.4025 142.25 580.125 C140.82819762 583.39514548 139.12753712 586.141122 137 589 C136.34 589 135.68 589 135 589 C134.566875 589.8971875 134.566875 589.8971875 134.125 590.8125 C133 593 133 593 131 596 C130.34 596 129.68 596 129 596 C128.731875 596.804375 128.46375 597.60875 128.1875 598.4375 C127.795625 599.283125 127.40375 600.12875 127 601 C126.01 601.33 125.02 601.66 124 602 C122.83046584 604.42383077 122.83046584 604.42383077 122 607 C121.67 607.66 121.34 608.32 121 609 C120.34 609 119.68 609 119 609 C118.67 610.32 118.34 611.64 118 613 C117.34 613 116.68 613 116 613 C115.79375 613.66 115.5875 614.32 115.375 615 C113.50875748 619.07180186 111.02438473 622.68796998 108 626 C107.34 626 106.68 626 106 626 C105.71125 626.5775 105.4225 627.155 105.125 627.75 C104.08333333 629.83333333 103.04166667 631.91666667 102 634 C101.34 634 100.68 634 100 634 C99.690625 634.61875 99.38125 635.2375 99.0625 635.875 C98.375 637.25 97.6875 638.625 97 640 C96.34 640 95.68 640 95 640 C94.9175 640.5775 94.835 641.155 94.75 641.75 C93.78594442 644.64216674 92.15717717 645.85442055 90 648 C88.75982531 649.6219752 87.55344035 651.27013227 86.375 652.9375 C82.858141 657.84795546 79.22426556 662.64629717 75.51904297 667.41455078 C73.26152523 670.328416 71.08263186 673.27148888 69 676.3125 C68.01 677.6428125 68.01 677.6428125 67 679 C66.34 679 65.68 679 65 679 C64.731875 679.804375 64.46375 680.60875 64.1875 681.4375 C63.795625 682.283125 63.40375 683.12875 63 684 C62.01 684.33 61.02 684.66 60 685 C59.31873966 686.66075482 58.65491334 688.32867994 58 690 C56.5779956 691.8780172 55.09366661 693.70986761 53.5625 695.5 C51.24132459 698.22269669 49.14499087 700.75163917 47.33984375 703.84375 C46.67662109 704.91109375 46.67662109 704.91109375 46 706 C45.34 706 44.68 706 44 706 C43.731875 706.804375 43.46375 707.60875 43.1875 708.4375 C42.795625 709.283125 42.40375 710.12875 42 711 C41.01 711.33 40.02 711.66 39 712 C38.30341637 713.65438613 37.63903117 715.32254318 37 717 C36.01979625 718.0194119 35.02196992 719.02246356 34 720 C33.67 720.99 33.34 721.98 33 723 C32.34 723 31.68 723 31 723 C30.62875 723.804375 30.62875 723.804375 30.25 724.625 C28.69347463 727.5823982 26.96564327 730.29724051 25 733 C24.34 733 23.68 733 23 733 C22.62875 733.804375 22.62875 733.804375 22.25 734.625 C20.29767465 738.33441817 18.20469326 741.83658103 15.17578125 744.76171875 C12.45268542 747.56303636 10.29517119 750.61564308 8.0625 753.8125 C5.53515625 757.39453125 5.53515625 757.39453125 4.27783203 759.17431641 C3.38817382 760.4454024 2.50974004 761.7243877 1.64013672 763.00927734 C0.47490234 764.70692171 -0.75750568 766.35805742 -2 768 C-2.66 768 -3.32 768 -4 768 C-4.20625 768.66 -4.4125 769.32 -4.625 770 C-6.49124252 774.07180186 -8.97561527 777.68796998 -12 781 C-12.66 781 -13.32 781 -14 781 C-14.33 781.99 -14.66 782.98 -15 784 C-15.66 784 -16.32 784 -17 784 C-17.2475 784.70125 -17.495 785.4025 -17.75 786.125 C-19.17180238 789.39514548 -20.87246288 792.141122 -23 795 C-23.66 795 -24.32 795 -25 795 C-25.309375 795.78375 -25.61875 796.5675 -25.9375 797.375 C-27 800 -27 800 -28 802 C-28.66 802 -29.32 802 -30 802 C-30.37125 802.928125 -30.37125 802.928125 -30.75 803.875 C-32.27919483 806.47463121 -33.2069638 806.92465727 -36 808 C-38.83984375 808.265625 -38.83984375 808.265625 -41.9375 808.25 C-42.95714844 808.25515625 -43.97679687 808.2603125 -45.02734375 808.265625 C-49.75152819 807.84349025 -52.12783022 806.89843163 -55.46484375 803.4609375 C-56.28082031 802.44257812 -57.09679687 801.42421875 -57.9375 800.375 C-58.3691748 799.83955566 -58.80084961 799.30411133 -59.24560547 798.75244141 C-60.5086611 797.17752018 -61.75465224 795.58896046 -63 794 C-63.65355469 793.175 -64.30710937 792.35 -64.98046875 791.5 C-69 786.30611639 -69 786.30611639 -69 784 C-69.99 783.67 -70.98 783.34 -72 783 C-73.51125313 781.00549732 -74.89119539 779.03110008 -76.25 776.9375 C-78.94339204 772.89603015 -81.64861594 769.0922612 -84.9375 765.5 C-87.38442964 762.8265028 -88.99917487 760.55848934 -90 757 C-90.66 757 -91.32 757 -92 757 C-92.33 755.35 -92.66 753.7 -93 752 C-93.66 752 -94.32 752 -95 752 C-96.5859375 750.20703125 -96.5859375 750.20703125 -98.375 747.8125 C-100.35603259 745.18215193 -102.3338294 742.59769278 -104.4375 740.0625 C-106 738 -106 738 -106 736 C-106.99 735.67 -107.98 735.34 -109 735 C-111.04296875 732.56640625 -111.04296875 732.56640625 -113.1875 729.5625 C-113.90292969 728.57378906 -114.61835938 727.58507812 -115.35546875 726.56640625 C-117 724 -117 724 -117 722 C-117.66 722 -118.32 722 -119 722 C-119 721.01 -119 720.02 -119 719 C-119.66 719 -120.32 719 -121 719 C-122.75644379 716.97356232 -124.38714022 714.94838717 -126 712.8125 C-126.67675781 711.9452832 -126.67675781 711.9452832 -127.3671875 711.06054688 C-129.36966551 708.43895955 -130.91003697 706.22896841 -132.125 703.13671875 C-132.41375 702.43160156 -132.7025 701.72648438 -133 701 C-133.99 700.67 -134.98 700.34 -136 700 C-137.38671875 698.44140625 -137.38671875 698.44140625 -138.6875 696.5625 C-139.34298828 695.63630859 -139.34298828 695.63630859 -140.01171875 694.69140625 C-141 693 -141 693 -141 691 C-141.66 691 -142.32 691 -143 691 C-144.02611949 689.34928604 -145.02308143 687.68029994 -146 686 C-146.556875 685.46375 -147.11375 684.9275 -147.6875 684.375 C-149 683 -149 683 -149 680 C-149.99 679.67 -150.98 679.34 -152 679 C-153.82470012 676.88794553 -155.51748205 674.78998471 -157.1875 672.5625 C-157.88262695 671.6643457 -157.88262695 671.6643457 -158.59179688 670.74804688 C-162 666.26568253 -162 666.26568253 -162 664 C-162.66 664 -163.32 664 -164 664 C-165.5078125 662.1015625 -165.5078125 662.1015625 -167.125 659.625 C-167.66382813 658.81289063 -168.20265625 658.00078125 -168.7578125 657.1640625 C-170 655 -170 655 -170 653 C-170.99 652.67 -171.98 652.34 -173 652 C-173 651.34 -173 650.68 -173 650 C-173.66 650 -174.32 650 -175 650 C-176.79826445 647.74185152 -178.4746801 645.48722261 -180.125 643.125 C-180.59292969 642.47402344 -181.06085938 641.82304688 -181.54296875 641.15234375 C-185 636.26412172 -185 636.26412172 -185 634 C-185.99 633.67 -186.98 633.34 -188 633 C-188.91792736 631.64010762 -189.82758459 630.27379336 -190.69140625 628.87890625 C-192.88181832 625.73386684 -195.56743218 623.02768027 -198.1953125 620.24609375 C-200.07182322 617.91060963 -201.0380034 615.8215261 -202 613 C-202.66 613 -203.32 613 -204 613 C-205.5078125 611.1015625 -205.5078125 611.1015625 -207.125 608.625 C-207.66382813 607.81289063 -208.20265625 607.00078125 -208.7578125 606.1640625 C-210 604 -210 604 -210 602 C-210.66 602 -211.32 602 -212 602 C-213.44054021 600.26059253 -214.80184465 598.45528806 -216.125 596.625 C-216.93740306 595.51329919 -217.75122887 594.40263683 -218.56640625 593.29296875 C-218.9752002 592.73528809 -219.38399414 592.17760742 -219.80517578 591.60302734 C-221.49789668 589.33200048 -223.27560139 587.13485453 -225.0625 584.9375 C-228.52558507 580.65150363 -231.75875207 576.23134384 -234.96875 571.75390625 C-237.69355293 568.05970228 -240.59586172 564.52420466 -243.53125 560.99609375 C-245 559 -245 559 -245 557 C-245.66 557 -246.32 557 -247 557 C-248.5078125 555.35546875 -248.5078125 555.35546875 -250.125 553.1875 C-250.66382813 552.47980469 -251.20265625 551.77210938 -251.7578125 551.04296875 C-253 549 -253 549 -253 546 C-253.66 546 -254.32 546 -255 546 C-256.2265625 544.63671875 -256.2265625 544.63671875 -257.625 542.6875 C-258.40617187 541.60662109 -258.40617187 541.60662109 -259.203125 540.50390625 C-259.79609375 539.67761719 -260.3890625 538.85132813 -261 538 C-262.07507813 536.55947266 -262.07507813 536.55947266 -263.171875 535.08984375 C-263.89890625 534.11144531 -264.6259375 533.13304687 -265.375 532.125 C-266.40753906 530.73667969 -266.40753906 530.73667969 -267.4609375 529.3203125 C-269 527 -269 527 -269 525 C-269.99 524.67 -270.98 524.34 -272 524 C-272.9695236 522.62929422 -273.92936838 521.24969206 -274.81640625 519.82421875 C-276.64955896 516.99886457 -278.75299696 514.38478606 -280.828125 511.734375 C-282 510 -282 510 -282 508 C-282.66 508 -283.32 508 -284 508 C-284.33 506.68 -284.66 505.36 -285 504 C-285.66 504 -286.32 504 -287 504 C-288.42952778 502.02823755 -289.71953085 500.06611293 -291 498 C-291.45246094 497.30390625 -291.90492188 496.6078125 -292.37109375 495.890625 C-296 490.25708215 -296 490.25708215 -296 488 C-296.66 488 -297.32 488 -298 488 C-298.35191406 487.33355469 -298.70382812 486.66710937 -299.06640625 485.98046875 C-301.7087595 481.04761608 -304.43461202 476.24592128 -307.5 471.5625 C-317 456.83644209 -317 456.83644209 -317 450 C-317.66 450 -318.32 450 -319 450 C-320.00696568 447.89915791 -321.0053589 445.79420511 -322 443.6875 C-322.556875 442.51574219 -323.11375 441.34398437 -323.6875 440.13671875 C-325 437 -325 437 -325 434 C-325.66 434 -326.32 434 -327 434 C-327.39832031 432.92621094 -327.79664063 431.85242188 -328.20703125 430.74609375 C-328.74209782 429.30986242 -329.27725914 427.87366638 -329.8125 426.4375 C-330.20405273 425.38079102 -330.20405273 425.38079102 -330.60351562 424.30273438 C-331.84362291 420.98047164 -333.12450398 417.7154644 -334.546875 414.46484375 C-336.11246929 410.73182726 -337.31789863 407.00938715 -338.4375 403.125 C-338.65067871 402.39394043 -338.86385742 401.66288086 -339.08349609 400.90966797 C-340.78740716 394.96440333 -342.25675474 388.97711048 -343.61645508 382.94458008 C-344.46925589 379.17000953 -345.44958705 375.49741959 -346.625 371.8125 C-348.52408939 365.18632943 -348.83132207 358.28317809 -349.35400391 351.4387207 C-349.42538574 350.50890381 -349.49676758 349.57908691 -349.5703125 348.62109375 C-349.65949951 347.35930298 -349.65949951 347.35930298 -349.75048828 346.07202148 C-349.88900072 343.94110521 -349.88900072 343.94110521 -351 342 C-351.2485981 339.40966923 -351.43104305 336.84722155 -351.5625 334.25 C-351.6042334 333.42870605 -351.6459668 332.60741211 -351.68896484 331.76123047 C-352.44359442 314.78668529 -352.33761635 297.72175614 -351.5625 280.75 C-351.52334473 279.88133301 -351.48418945 279.01266602 -351.44384766 278.11767578 C-351.13069673 272.26139345 -351.13069673 272.26139345 -350 270 C-349.83908509 268.66577729 -349.72655759 267.32551609 -349.640625 265.984375 C-348.2964643 247.73610615 -344.48181893 230.35149871 -338.67236328 213.015625 C-337.9424769 210.82755604 -337.23419494 208.63311335 -336.52734375 206.4375 C-333.71819836 197.77859528 -330.69107099 189.32940798 -327 181 C-326.34 181 -325.68 181 -325 181 C-324.896875 180.13375 -324.79375 179.2675 -324.6875 178.375 C-323.94859184 174.74763267 -322.71509942 172.27920815 -321 169 C-320.50101196 168.04432129 -320.50101196 168.04432129 -319.99194336 167.06933594 C-317.35352675 162.03273906 -314.67801594 157.01562742 -312 152 C-311.52046875 151.10152344 -311.0409375 150.20304688 -310.546875 149.27734375 C-300.77007029 131.32061244 -288.11684792 115.04114557 -274.56640625 99.79296875 C-273.05638301 98.06453816 -271.6205365 96.29234011 -270.1875 94.5 C-269.465625 93.675 -268.74375 92.85 -268 92 C-267.34 92 -266.68 92 -266 92 C-266 91.34 -266 90.68 -266 90 C-264.34997172 88.64613064 -262.6825613 87.31321858 -261 86 C-260.67 85.34 -260.34 84.68 -260 84 C-259.34 84 -258.68 84 -258 84 C-258 83.34 -258 82.68 -258 82 C-256.63671875 80.625 -256.63671875 80.625 -254.6875 79 C-251.21437588 76.0555284 -247.84321932 73.02892874 -244.5 69.9375 C-232.52245726 59.03826789 -232.52245726 59.03826789 -226 57 C-226 56.34 -226 55.68 -226 55 C-224.1015625 53.4921875 -224.1015625 53.4921875 -221.625 51.875 C-220.40683594 51.06675781 -220.40683594 51.06675781 -219.1640625 50.2421875 C-217 49 -217 49 -215 49 C-215 48.34 -215 47.68 -215 47 C-214.16855469 46.60167969 -214.16855469 46.60167969 -213.3203125 46.1953125 C-212.59585938 45.84210938 -211.87140625 45.48890625 -211.125 45.125 C-210.40570313 44.77695313 -209.68640625 44.42890625 -208.9453125 44.0703125 C-206.84864981 43.03442457 -206.84864981 43.03442457 -205 41 C-204.01 41 -203.02 41 -202 41 C-202 40.34 -202 39.68 -202 39 C-200.06629769 37.99267601 -198.12789694 36.99436712 -196.1875 36 C-194.56908203 35.1646875 -194.56908203 35.1646875 -192.91796875 34.3125 C-190 33 -190 33 -187 33 C-187 32.34 -187 31.68 -187 31 C-185.08850332 29.9901527 -183.17058431 28.99245505 -181.25 28 C-180.18265625 27.443125 -179.1153125 26.88625 -178.015625 26.3125 C-175 25 -175 25 -171 25 C-171 24.34 -171 23.68 -171 23 C-170.2265625 22.75765625 -169.453125 22.5153125 -168.65625 22.265625 C-167.6146875 21.93046875 -166.573125 21.5953125 -165.5 21.25 C-163.96859375 20.76273438 -163.96859375 20.76273438 -162.40625 20.265625 C-159.82662708 19.30714125 -157.5779411 18.30817245 -155.15625 17.046875 C-150.90194788 14.8669007 -146.56459208 13.39189779 -142 12 C-141.17113281 11.7436377 -140.34226562 11.48727539 -139.48828125 11.22314453 C-131.72383454 8.8554639 -123.91570722 6.79943956 -116 5 C-115.22060059 4.82194824 -114.44120117 4.64389648 -113.63818359 4.46044922 C-105.14181316 2.54083044 -96.75334211 0.6588085 -88.03125 0.17578125 C-85.79728539 0.06201645 -85.79728539 0.06201645 -83 -1 C-58.4025135 -4.01704707 -23.84248945 -7.94749648 0 0 Z " fill="#233858" transform="translate(555,101)"/>
<path d="M0 0 C1.94960776 0.20970222 3.89972509 0.41590143 5.85229492 0.59594727 C14.31355517 1.38059315 22.25996994 2.84412464 30.44921875 5.09765625 C33.96200757 5.99034516 37.41363159 6.50165665 41 7 C43.08984375 7.578125 43.08984375 7.578125 44.9375 8.25 C47.89186546 9.29062701 50.85168391 10.26858683 53.8515625 11.16796875 C66.4977468 14.96893696 66.4977468 14.96893696 72.11328125 18.05078125 C74.35316876 19.17768118 76.62489601 19.94660441 79 20.75 C96.95907436 27.13052162 114.87676587 37.45150816 130.5 48.28125 C132.86898379 49.90992636 135.28259031 51.4014081 137.75 52.875 C139.35875 53.926875 139.35875 53.926875 141 55 C141 55.66 141 56.32 141 57 C141.53625 57.2475 142.0725 57.495 142.625 57.75 C145.5823982 59.30652537 148.29724051 61.03435673 151 63 C151 63.66 151 64.32 151 65 C151.721875 65.2475 152.44375 65.495 153.1875 65.75 C156.27606582 67.12269592 158.51011418 68.72353296 161 71 C161 71.66 161 72.32 161 73 C161.8353125 73.37125 161.8353125 73.37125 162.6875 73.75 C165.42410913 75.22924818 167.67650869 76.93467439 170 79 C170 79.66 170 80.32 170 81 C170.9590625 81.4021875 170.9590625 81.4021875 171.9375 81.8125 C174 83 174 83 175 86 C175.99 86.33 176.98 86.66 178 87 C178 87.66 178 88.32 178 89 C178.9590625 89.4021875 178.9590625 89.4021875 179.9375 89.8125 C182 91 182 91 183 94 C183.99 94.33 184.98 94.66 186 95 C186 95.66 186 96.32 186 97 C186.66 97 187.32 97 188 97 C191 100.46153846 191 100.46153846 191 103 C191.66 103 192.32 103 193 103 C194.5078125 104.6796875 194.5078125 104.6796875 196.125 106.875 C196.66382813 107.59429687 197.20265625 108.31359375 197.7578125 109.0546875 C199 111 199 111 199 113 C199.66 113 200.32 113 201 113 C202.5078125 114.64453125 202.5078125 114.64453125 204.125 116.8125 C204.66382813 117.52019531 205.20265625 118.22789062 205.7578125 118.95703125 C207 121 207 121 207 124 C207.66 124 208.32 124 209 124 C210.48046875 126.0546875 210.48046875 126.0546875 212.1875 128.875 C214.50418499 132.62764677 216.86750874 136.29115897 219.4375 139.875 C226.88664231 150.46674923 232.81195727 161.30352976 238.12451172 173.07275391 C238.89015178 174.75818689 239.67946541 176.43282493 240.47265625 178.10546875 C243.11405356 183.70329241 245.21254297 189.34063407 247.1015625 195.234375 C247.83869592 197.50346395 248.63217951 199.71662606 249.5 201.9375 C256.66516604 220.81347505 262.75564645 242.2769069 263.7890625 262.453125 C263.84027783 264.9904407 263.84027783 264.9904407 265 267 C265.22587948 269.17397397 265.39390217 271.35404835 265.53515625 273.53515625 C265.59989388 274.52776207 265.59989388 274.52776207 265.66593933 275.54042053 C265.80458483 277.71410323 265.93476797 279.88814976 266.0625 282.0625 C266.12878601 283.17803253 266.12878601 283.17803253 266.19641113 284.31610107 C269.4024649 339.1950702 269.4024649 339.1950702 264 350 C263.82803799 351.35485219 263.70342732 352.71592109 263.60546875 354.078125 C262.85261313 363.41992253 261.84418189 372.02050406 258.90234375 380.95703125 C257.90594683 384.04291778 257.90594683 384.04291778 257.50390625 387.51171875 C257.01082386 390.92507206 256.16244711 393.76059319 255 397 C254.54055688 398.40113136 254.08513463 399.80358486 253.6328125 401.20703125 C248.9430038 415.57557603 248.9430038 415.57557603 245.9453125 421.8984375 C244.02943959 426.15769214 242.54745935 430.5963258 241 435 C240.34 435 239.68 435 239 435 C238.93167969 435.96421875 238.86335937 436.9284375 238.79296875 437.921875 C238.07680221 442.8962953 235.71899477 446.90105481 233.3125 451.25 C232.85915283 452.08829346 232.40580566 452.92658691 231.9387207 453.7902832 C231.03959687 455.45009308 230.13599897 457.1074886 229.22753906 458.76220703 C228.19977134 460.6358186 227.18779929 462.5180833 226.1796875 464.40234375 C219.55176067 476.77331712 219.55176067 476.77331712 217 480 C216.34 480 215.68 480 215 480 C214.938125 480.66 214.87625 481.32 214.8125 482 C213.69621505 486.1216675 211.66238434 489.65750502 209 493 C208.34 493 207.68 493 207 493 C206.79375 493.825 206.5875 494.65 206.375 495.5 C204.86375495 499.34680559 202.8876476 502.05128078 200.33984375 505.265625 C198.93551917 506.96821495 198.93551917 506.96821495 198 509 C197.34 509 196.68 509 196 509 C195.64035156 510.05960938 195.64035156 510.05960938 195.2734375 511.140625 C193.79072165 514.46991336 191.90315039 516.90415518 189.625 519.75 C184.8515214 525.78874871 180.40069419 532.0194814 176.02392578 538.35058594 C175.30245361 539.38747559 175.30245361 539.38747559 174.56640625 540.4453125 C174.14302979 541.05906738 173.71965332 541.67282227 173.28344727 542.30517578 C171.96299457 544.0488666 170.64897974 545.56130022 169 547 C168.34 547 167.68 547 167 547 C166.92394531 547.54914062 166.84789062 548.09828125 166.76953125 548.6640625 C165.71648606 551.86061592 163.87009485 553.82447181 161.6875 556.375 C157.89926653 560.8652698 157.89926653 560.8652698 154.5625 565.6875 C154.046875 566.450625 153.53125 567.21375 153 568 C152.34 568 151.68 568 151 568 C150.62875 568.804375 150.62875 568.804375 150.25 569.625 C148.69347463 572.5823982 146.96564327 575.29724051 145 578 C144.34 578 143.68 578 143 578 C142.7525 578.70125 142.505 579.4025 142.25 580.125 C140.82819762 583.39514548 139.12753712 586.141122 137 589 C136.34 589 135.68 589 135 589 C134.566875 589.8971875 134.566875 589.8971875 134.125 590.8125 C133 593 133 593 131 596 C130.34 596 129.68 596 129 596 C128.731875 596.804375 128.46375 597.60875 128.1875 598.4375 C127.795625 599.283125 127.40375 600.12875 127 601 C126.01 601.33 125.02 601.66 124 602 C122.83046584 604.42383077 122.83046584 604.42383077 122 607 C121.67 607.66 121.34 608.32 121 609 C120.34 609 119.68 609 119 609 C118.67 610.32 118.34 611.64 118 613 C117.34 613 116.68 613 116 613 C115.79375 613.66 115.5875 614.32 115.375 615 C113.50875748 619.07180186 111.02438473 622.68796998 108 626 C107.34 626 106.68 626 106 626 C105.71125 626.5775 105.4225 627.155 105.125 627.75 C104.08333333 629.83333333 103.04166667 631.91666667 102 634 C101.34 634 100.68 634 100 634 C99.690625 634.61875 99.38125 635.2375 99.0625 635.875 C98.375 637.25 97.6875 638.625 97 640 C96.34 640 95.68 640 95 640 C94.9175 640.5775 94.835 641.155 94.75 641.75 C93.78594442 644.64216674 92.15717717 645.85442055 90 648 C88.75982531 649.6219752 87.55344035 651.27013227 86.375 652.9375 C82.858141 657.84795546 79.22426556 662.64629717 75.51904297 667.41455078 C73.26152523 670.328416 71.08263186 673.27148888 69 676.3125 C68.01 677.6428125 68.01 677.6428125 67 679 C66.34 679 65.68 679 65 679 C64.731875 679.804375 64.46375 680.60875 64.1875 681.4375 C63.795625 682.283125 63.40375 683.12875 63 684 C62.01 684.33 61.02 684.66 60 685 C59.31873966 686.66075482 58.65491334 688.32867994 58 690 C56.5779956 691.8780172 55.09366661 693.70986761 53.5625 695.5 C51.24132459 698.22269669 49.14499087 700.75163917 47.33984375 703.84375 C46.67662109 704.91109375 46.67662109 704.91109375 46 706 C45.34 706 44.68 706 44 706 C43.731875 706.804375 43.46375 707.60875 43.1875 708.4375 C42.795625 709.283125 42.40375 710.12875 42 711 C41.01 711.33 40.02 711.66 39 712 C38.30341637 713.65438613 37.63903117 715.32254318 37 717 C36.01979625 718.0194119 35.02196992 719.02246356 34 720 C33.67 720.99 33.34 721.98 33 723 C32.34 723 31.68 723 31 723 C30.62875 723.804375 30.62875 723.804375 30.25 724.625 C28.69347463 727.5823982 26.96564327 730.29724051 25 733 C24.34 733 23.68 733 23 733 C22.62875 733.804375 22.62875 733.804375 22.25 734.625 C20.29767465 738.33441817 18.20469326 741.83658103 15.17578125 744.76171875 C12.45268542 747.56303636 10.29517119 750.61564308 8.0625 753.8125 C5.53515625 757.39453125 5.53515625 757.39453125 4.27783203 759.17431641 C3.38817382 760.4454024 2.50974004 761.7243877 1.64013672 763.00927734 C0.47490234 764.70692171 -0.75750568 766.35805742 -2 768 C-2.66 768 -3.32 768 -4 768 C-4.20625 768.66 -4.4125 769.32 -4.625 770 C-6.49124252 774.07180186 -8.97561527 777.68796998 -12 781 C-12.66 781 -13.32 781 -14 781 C-14.33 781.99 -14.66 782.98 -15 784 C-15.66 784 -16.32 784 -17 784 C-17.2475 784.70125 -17.495 785.4025 -17.75 786.125 C-19.17180238 789.39514548 -20.87246288 792.141122 -23 795 C-23.66 795 -24.32 795 -25 795 C-25.309375 795.78375 -25.61875 796.5675 -25.9375 797.375 C-27 800 -27 800 -28 802 C-28.66 802 -29.32 802 -30 802 C-30.37125 802.928125 -30.37125 802.928125 -30.75 803.875 C-32.27919483 806.47463121 -33.2069638 806.92465727 -36 808 C-38.83984375 808.265625 -38.83984375 808.265625 -41.9375 808.25 C-42.95714844 808.25515625 -43.97679687 808.2603125 -45.02734375 808.265625 C-49.75152819 807.84349025 -52.12783022 806.89843163 -55.46484375 803.4609375 C-56.28082031 802.44257812 -57.09679687 801.42421875 -57.9375 800.375 C-58.3691748 799.83955566 -58.80084961 799.30411133 -59.24560547 798.75244141 C-60.5086611 797.17752018 -61.75465224 795.58896046 -63 794 C-63.65355469 793.175 -64.30710937 792.35 -64.98046875 791.5 C-69 786.30611639 -69 786.30611639 -69 784 C-69.99 783.67 -70.98 783.34 -72 783 C-73.51125313 781.00549732 -74.89119539 779.03110008 -76.25 776.9375 C-78.94339204 772.89603015 -81.64861594 769.0922612 -84.9375 765.5 C-87.38442964 762.8265028 -88.99917487 760.55848934 -90 757 C-90.66 757 -91.32 757 -92 757 C-92.33 755.35 -92.66 753.7 -93 752 C-93.66 752 -94.32 752 -95 752 C-96.5859375 750.20703125 -96.5859375 750.20703125 -98.375 747.8125 C-100.35603259 745.18215193 -102.3338294 742.59769278 -104.4375 740.0625 C-106 738 -106 738 -106 736 C-106.99 735.67 -107.98 735.34 -109 735 C-111.04296875 732.56640625 -111.04296875 732.56640625 -113.1875 729.5625 C-113.90292969 728.57378906 -114.61835938 727.58507812 -115.35546875 726.56640625 C-117 724 -117 724 -117 722 C-117.66 722 -118.32 722 -119 722 C-119 721.01 -119 720.02 -119 719 C-119.66 719 -120.32 719 -121 719 C-122.75644379 716.97356232 -124.38714022 714.94838717 -126 712.8125 C-126.67675781 711.9452832 -126.67675781 711.9452832 -127.3671875 711.06054688 C-129.36966551 708.43895955 -130.91003697 706.22896841 -132.125 703.13671875 C-132.41375 702.43160156 -132.7025 701.72648438 -133 701 C-133.99 700.67 -134.98 700.34 -136 700 C-137.38671875 698.44140625 -137.38671875 698.44140625 -138.6875 696.5625 C-139.34298828 695.63630859 -139.34298828 695.63630859 -140.01171875 694.69140625 C-141 693 -141 693 -141 691 C-141.66 691 -142.32 691 -143 691 C-144.02611949 689.34928604 -145.02308143 687.68029994 -146 686 C-146.556875 685.46375 -147.11375 684.9275 -147.6875 684.375 C-149 683 -149 683 -149 680 C-149.99 679.67 -150.98 679.34 -152 679 C-153.82470012 676.88794553 -155.51748205 674.78998471 -157.1875 672.5625 C-157.88262695 671.6643457 -157.88262695 671.6643457 -158.59179688 670.74804688 C-162 666.26568253 -162 666.26568253 -162 664 C-162.66 664 -163.32 664 -164 664 C-165.5078125 662.1015625 -165.5078125 662.1015625 -167.125 659.625 C-167.66382813 658.81289063 -168.20265625 658.00078125 -168.7578125 657.1640625 C-170 655 -170 655 -170 653 C-170.99 652.67 -171.98 652.34 -173 652 C-173 651.34 -173 650.68 -173 650 C-173.66 650 -174.32 650 -175 650 C-176.79826445 647.74185152 -178.4746801 645.48722261 -180.125 643.125 C-180.59292969 642.47402344 -181.06085938 641.82304688 -181.54296875 641.15234375 C-185 636.26412172 -185 636.26412172 -185 634 C-185.99 633.67 -186.98 633.34 -188 633 C-188.91792736 631.64010762 -189.82758459 630.27379336 -190.69140625 628.87890625 C-192.88181832 625.73386684 -195.56743218 623.02768027 -198.1953125 620.24609375 C-200.07182322 617.91060963 -201.0380034 615.8215261 -202 613 C-202.66 613 -203.32 613 -204 613 C-205.5078125 611.1015625 -205.5078125 611.1015625 -207.125 608.625 C-207.66382813 607.81289063 -208.20265625 607.00078125 -208.7578125 606.1640625 C-210 604 -210 604 -210 602 C-210.66 602 -211.32 602 -212 602 C-213.44054021 600.26059253 -214.80184465 598.45528806 -216.125 596.625 C-216.93740306 595.51329919 -217.75122887 594.40263683 -218.56640625 593.29296875 C-218.9752002 592.73528809 -219.38399414 592.17760742 -219.80517578 591.60302734 C-221.49789668 589.33200048 -223.27560139 587.13485453 -225.0625 584.9375 C-228.52558507 580.65150363 -231.75875207 576.23134384 -234.96875 571.75390625 C-237.69355293 568.05970228 -240.59586172 564.52420466 -243.53125 560.99609375 C-245 559 -245 559 -245 557 C-245.66 557 -246.32 557 -247 557 C-248.5078125 555.35546875 -248.5078125 555.35546875 -250.125 553.1875 C-250.66382813 552.47980469 -251.20265625 551.77210938 -251.7578125 551.04296875 C-253 549 -253 549 -253 546 C-253.66 546 -254.32 546 -255 546 C-256.2265625 544.63671875 -256.2265625 544.63671875 -257.625 542.6875 C-258.40617187 541.60662109 -258.40617187 541.60662109 -259.203125 540.50390625 C-259.79609375 539.67761719 -260.3890625 538.85132813 -261 538 C-262.07507813 536.55947266 -262.07507813 536.55947266 -263.171875 535.08984375 C-263.89890625 534.11144531 -264.6259375 533.13304687 -265.375 532.125 C-266.40753906 530.73667969 -266.40753906 530.73667969 -267.4609375 529.3203125 C-269 527 -269 527 -269 525 C-269.99 524.67 -270.98 524.34 -272 524 C-272.9695236 522.62929422 -273.92936838 521.24969206 -274.81640625 519.82421875 C-276.64955896 516.99886457 -278.75299696 514.38478606 -280.828125 511.734375 C-282 510 -282 510 -282 508 C-282.66 508 -283.32 508 -284 508 C-284.33 506.68 -284.66 505.36 -285 504 C-285.66 504 -286.32 504 -287 504 C-288.42952778 502.02823755 -289.71953085 500.06611293 -291 498 C-291.45246094 497.30390625 -291.90492188 496.6078125 -292.37109375 495.890625 C-296 490.25708215 -296 490.25708215 -296 488 C-296.66 488 -297.32 488 -298 488 C-298.35191406 487.33355469 -298.70382812 486.66710937 -299.06640625 485.98046875 C-301.7087595 481.04761608 -304.43461202 476.24592128 -307.5 471.5625 C-317 456.83644209 -317 456.83644209 -317 450 C-317.66 450 -318.32 450 -319 450 C-320.00696568 447.89915791 -321.0053589 445.79420511 -322 443.6875 C-322.556875 442.51574219 -323.11375 441.34398437 -323.6875 440.13671875 C-325 437 -325 437 -325 434 C-325.66 434 -326.32 434 -327 434 C-327.39832031 432.92621094 -327.79664063 431.85242188 -328.20703125 430.74609375 C-328.74209782 429.30986242 -329.27725914 427.87366638 -329.8125 426.4375 C-330.20405273 425.38079102 -330.20405273 425.38079102 -330.60351562 424.30273438 C-331.84362291 420.98047164 -333.12450398 417.7154644 -334.546875 414.46484375 C-336.11246929 410.73182726 -337.31789863 407.00938715 -338.4375 403.125 C-338.65067871 402.39394043 -338.86385742 401.66288086 -339.08349609 400.90966797 C-340.78740716 394.96440333 -342.25675474 388.97711048 -343.61645508 382.94458008 C-344.46925589 379.17000953 -345.44958705 375.49741959 -346.625 371.8125 C-348.52408939 365.18632943 -348.83132207 358.28317809 -349.35400391 351.4387207 C-349.42538574 350.50890381 -349.49676758 349.57908691 -349.5703125 348.62109375 C-349.65949951 347.35930298 -349.65949951 347.35930298 -349.75048828 346.07202148 C-349.88900072 343.94110521 -349.88900072 343.94110521 -351 342 C-351.2485981 339.40966923 -351.43104305 336.84722155 -351.5625 334.25 C-351.6042334 333.42870605 -351.6459668 332.60741211 -351.68896484 331.76123047 C-352.44359442 314.78668529 -352.33761635 297.72175614 -351.5625 280.75 C-351.52334473 279.88133301 -351.48418945 279.01266602 -351.44384766 278.11767578 C-351.13069673 272.26139345 -351.13069673 272.26139345 -350 270 C-349.83908509 268.66577729 -349.72655759 267.32551609 -349.640625 265.984375 C-348.2964643 247.73610615 -344.48181893 230.35149871 -338.67236328 213.015625 C-337.9424769 210.82755604 -337.23419494 208.63311335 -336.52734375 206.4375 C-333.71819836 197.77859528 -330.69107099 189.32940798 -327 181 C-326.34 181 -325.68 181 -325 181 C-324.896875 180.13375 -324.79375 179.2675 -324.6875 178.375 C-323.94859184 174.74763267 -322.71509942 172.27920815 -321 169 C-320.50101196 168.04432129 -320.50101196 168.04432129 -319.99194336 167.06933594 C-317.35352675 162.03273906 -314.67801594 157.01562742 -312 152 C-311.52046875 151.10152344 -311.0409375 150.20304688 -310.546875 149.27734375 C-300.77007029 131.32061244 -288.11684792 115.04114557 -274.56640625 99.79296875 C-273.05638301 98.06453816 -271.6205365 96.29234011 -270.1875 94.5 C-269.465625 93.675 -268.74375 92.85 -268 92 C-267.34 92 -266.68 92 -266 92 C-266 91.34 -266 90.68 -266 90 C-264.34997172 88.64613064 -262.6825613 87.31321858 -261 86 C-260.67 85.34 -260.34 84.68 -260 84 C-259.34 84 -258.68 84 -258 84 C-258 83.34 -258 82.68 -258 82 C-256.63671875 80.625 -256.63671875 80.625 -254.6875 79 C-251.21437588 76.0555284 -247.84321932 73.02892874 -244.5 69.9375 C-232.52245726 59.03826789 -232.52245726 59.03826789 -226 57 C-226 56.34 -226 55.68 -226 55 C-224.1015625 53.4921875 -224.1015625 53.4921875 -221.625 51.875 C-220.40683594 51.06675781 -220.40683594 51.06675781 -219.1640625 50.2421875 C-217 49 -217 49 -215 49 C-215 48.34 -215 47.68 -215 47 C-214.16855469 46.60167969 -214.16855469 46.60167969 -213.3203125 46.1953125 C-212.59585938 45.84210938 -211.87140625 45.48890625 -211.125 45.125 C-210.40570313 44.77695313 -209.68640625 44.42890625 -208.9453125 44.0703125 C-206.84864981 43.03442457 -206.84864981 43.03442457 -205 41 C-204.01 41 -203.02 41 -202 41 C-202 40.34 -202 39.68 -202 39 C-200.06629769 37.99267601 -198.12789694 36.99436712 -196.1875 36 C-194.56908203 35.1646875 -194.56908203 35.1646875 -192.91796875 34.3125 C-190 33 -190 33 -187 33 C-187 32.34 -187 31.68 -187 31 C-185.08850332 29.9901527 -183.17058431 28.99245505 -181.25 28 C-180.18265625 27.443125 -179.1153125 26.88625 -178.015625 26.3125 C-175 25 -175 25 -171 25 C-171 24.34 -171 23.68 -171 23 C-170.2265625 22.75765625 -169.453125 22.5153125 -168.65625 22.265625 C-167.6146875 21.93046875 -166.573125 21.5953125 -165.5 21.25 C-163.96859375 20.76273438 -163.96859375 20.76273438 -162.40625 20.265625 C-159.82662708 19.30714125 -157.5779411 18.30817245 -155.15625 17.046875 C-150.90194788 14.8669007 -146.56459208 13.39189779 -142 12 C-141.17113281 11.7436377 -140.34226562 11.48727539 -139.48828125 11.22314453 C-131.72383454 8.8554639 -123.91570722 6.79943956 -116 5 C-115.22060059 4.82194824 -114.44120117 4.64389648 -113.63818359 4.46044922 C-105.14181316 2.54083044 -96.75334211 0.6588085 -88.03125 0.17578125 C-85.79728539 0.06201645 -85.79728539 0.06201645 -83 -1 C-58.4025135 -4.01704707 -23.84248945 -7.94749648 0 0 Z M-86 45 C-86.99128906 45.15033691 -87.98257813 45.30067383 -89.00390625 45.45556641 C-151.99281749 55.34121203 -214.65654752 91.67464563 -253 143 C-253.4945166 143.66112793 -253.9890332 144.32225586 -254.49853516 145.00341797 C-297.39695831 202.63823211 -317.1502608 273.1528183 -306.8515625 344.66015625 C-305.95009772 350.44799455 -304.98042295 356.2250697 -304 362 C-292.87737428 362.81879836 -283.52230069 360.44224586 -272.9375 357.375 C-271.18070609 356.8774124 -269.42378559 356.38027154 -267.66674805 355.88354492 C-189.64230691 333.64402104 -110.32525902 306.12700541 -38.2421875 268.53125 C-35 267 -35 267 -32 267.25 C-31.34 267.4975 -30.68 267.745 -30 268 C-29.78125 270.328125 -29.78125 270.328125 -30 273 C-31.40625 274.484375 -31.40625 274.484375 -33.5 275.75 C-34.33273437 276.25789062 -35.16546875 276.76578125 -36.0234375 277.2890625 C-37.00570313 277.85367188 -37.98796875 278.41828125 -39 279 C-40.10601563 279.64710938 -41.21203125 280.29421875 -42.3515625 280.9609375 C-52.25127404 286.67489147 -62.40520527 291.91173679 -72.5546875 297.1640625 C-75.66114165 298.77406965 -78.75620299 300.39672738 -81.8203125 302.0859375 C-93.95713362 308.75978113 -106.581096 314.42580468 -119.17706299 320.16796875 C-120.92362224 320.9651394 -122.66863487 321.76569599 -124.41357422 322.56640625 C-155.86492281 336.98103166 -187.83521477 350.14930604 -220.125 362.5625 C-221.18840607 362.97170685 -222.25181213 363.3809137 -223.34744263 363.80252075 C-234.95330018 368.26015176 -246.59295739 372.61749621 -258.28515625 376.84375 C-259.77494492 377.38359276 -259.77494492 377.38359276 -261.29483032 377.93434143 C-270.74900027 381.32841691 -280.31381323 384.35126162 -289.9230957 387.27319336 C-292.05676455 388.01986459 -294.00210121 388.94676754 -296 390 C-295.48759477 396.27233384 -294.42247601 401.62916244 -292.1875 407.5 C-291.88473145 408.30332764 -291.58196289 409.10665527 -291.27001953 409.93432617 C-277.83775657 444.5376449 -257.35741877 474.34632624 -234.86474609 503.56494141 C-232.10736446 507.1656385 -229.39694981 510.80068752 -226.6875 514.4375 C-222.10135144 520.57977302 -217.40197208 526.62345894 -212.6484375 532.63671875 C-210.0695824 535.90220108 -207.53036335 539.19687298 -205 542.5 C-202.45281573 545.82228271 -199.8980472 549.13798079 -197.31640625 552.43359375 C-196.86539551 553.01093262 -196.41438477 553.58827148 -195.94970703 554.18310547 C-195.02364714 555.35428927 -194.08569357 556.51616443 -193.13623047 557.66845703 C-190.69090519 560.66484153 -188.64339386 563.54811962 -186.87890625 566.99609375 C-184.55916584 571.2021535 -182.30636745 574.66206112 -178 577 C-169.1853508 579.03191861 -159.92552639 577.95090564 -150.99829102 577.16967773 C-147.74643167 576.89355773 -144.4898689 576.68178273 -141.234375 576.453125 C-97.35429835 573.03036807 -55.32277192 561.68559016 -14 547 C-12.25831543 546.38294189 -12.25831543 546.38294189 -10.48144531 545.75341797 C38.89963452 528.10038568 91.46070636 504.3286267 130 468 C131.28850326 466.91290606 132.58012686 465.8294987 133.875 464.75 C145.23796779 454.74414779 158.28298949 441.37930269 160.30078125 425.65625 C160.33199455 419.91300219 159.58697357 415.95005759 155.6640625 411.4765625 C149.38099552 405.43868838 141.47921762 402.30176463 132.89453125 401.36328125 C117.33197884 399.57027872 109.73548621 394.21924523 100 382 C123.45973792 381.54545179 150.25494101 382.96045296 168.5 399.8125 C176.00576763 408.17697833 177.94636358 415.80752114 177.41796875 426.8125 C175.67542104 448.40642462 157.79666398 468.70163753 142.125 482.5625 C140.75227122 483.71105332 139.37701341 484.85658708 138 486 C137.0925 486.79535156 136.185 487.59070313 135.25 488.41015625 C113.8164643 507.13054264 89.35581213 521.93858545 64.49902344 535.62353516 C62.37137137 536.79544824 60.25113143 537.97932491 58.1328125 539.16796875 C11.62492494 564.7420339 -40.35633448 582.41089194 -92 594 C-92.88349121 594.20463867 -93.76698242 594.40927734 -94.67724609 594.62011719 C-115.03439749 599.31130872 -136.19353183 601.43606685 -157 603 C-148.26760389 614.67234167 -139.44641498 626.26573881 -130.30566406 637.62207031 C-126.78773442 641.99803157 -123.33924077 646.41927954 -119.92675781 650.87817383 C-109.94116764 663.92456447 -99.79088752 676.84473132 -89.62207031 689.74853516 C-84.7804333 695.89290795 -79.95190579 702.0453735 -75.1875 708.25 C-73.93591649 709.87906536 -72.68411693 711.50796424 -71.43212891 713.13671875 C-70.39754935 714.48276567 -69.36342687 715.82916395 -68.32958984 717.17578125 C-57.67125908 733.69698605 -57.67125908 733.69698605 -42.375 743.5 C-37.76830529 743.3679084 -35.50259989 741.71345614 -32.25 738.5625 C-28.25813144 734.01620525 -24.71520812 729.14411979 -21.1484375 724.26171875 C-18.16520375 720.18820831 -15.04926046 716.23812826 -11.875 712.3125 C-7.82618628 707.29215319 -3.83994681 702.23552939 0.07958984 697.11328125 C3.61391982 692.4954239 7.17783604 687.90114535 10.75 683.3125 C11.34280762 682.55090576 11.93561523 681.78931152 12.54638672 681.00463867 C13.75934681 679.44654195 14.97240086 677.88851837 16.18554688 676.33056641 C19.70787382 671.80632891 23.22731152 667.27984338 26.74682617 662.75341797 C29.67417613 658.98892354 32.60307017 655.22565082 35.53515625 651.46484375 C41.26822531 644.10790705 46.97576052 636.73404991 52.625 629.3125 C57.16049237 623.35646492 61.78816246 617.48576158 66.48535156 611.65673828 C70.7443502 606.35600029 74.87964816 600.96656881 78.99731445 595.55566406 C83.61468702 589.49085006 88.28746986 583.47068118 92.97338867 577.45874023 C96.39443623 573.06818052 99.80099131 568.66724449 103.1875 564.25 C107.0556062 559.21069962 110.970475 554.21058485 114.90185547 549.22070312 C118.31000222 544.89023937 121.68004802 540.53183011 125.03271484 536.15820312 C127.96221717 532.33997537 130.91373953 528.53952364 133.87402344 524.74511719 C142.33558913 513.89562497 150.7309473 502.99711883 159 492 C159.58168945 491.2265625 160.16337891 490.453125 160.76269531 489.65625 C190.31570675 450.13788764 211.1723154 405.66482228 220 357 C220.24991699 355.62400635 220.24991699 355.62400635 220.50488281 354.22021484 C223.18807016 338.45718359 223.30937661 322.63276095 223.375 306.6875 C223.38294586 305.67309845 223.39089172 304.6586969 223.39907837 303.61355591 C223.75415561 244.56629864 202.31508983 185.65891055 165 140 C164.53480957 139.42056641 164.06961914 138.84113281 163.59033203 138.24414062 C151.09194729 122.7338281 136.81878315 107.95221913 120.67871094 96.22998047 C118.92194482 94.94280948 117.1987935 93.61811586 115.4765625 92.28515625 C88.59849363 71.70584472 57.48416711 58.72899541 25 50 C24.23091309 49.78859375 23.46182617 49.5771875 22.66943359 49.359375 C9.97295526 45.90756551 -2.9425166 44.42237874 -16 43 C-17.17973389 42.85425537 -17.17973389 42.85425537 -18.38330078 42.70556641 C-26.2348227 41.79275119 -34.10543315 41.7564549 -42 41.75 C-43.11965652 41.74898788 -43.11965652 41.74898788 -44.26193237 41.74795532 C-58.34033594 41.76800816 -72.08241316 42.79132006 -86 45 Z " fill="#56A7D9" transform="translate(555,101)"/>
<path d="M0 0 C0.72994171 0.00060425 1.45988342 0.0012085 2.21194458 0.00183105 C19.27594798 0.04016715 35.26130255 1.98674404 51.8125 6.1875 C52.51874512 6.36651855 53.22499023 6.54553711 53.95263672 6.72998047 C95.29434271 17.47518158 136.75685367 43.29818423 160.8125 79.1875 C161.32006836 79.9314502 161.82763672 80.67540039 162.35058594 81.44189453 C164.04828358 83.94681619 165.71571779 86.46949157 167.375 89 C168.18167114 90.20124512 168.18167114 90.20124512 169.00463867 91.42675781 C172.0001332 96.10755337 173.85040499 99.45826447 172.8125 105.1875 C171.16015625 107.77734375 171.16015625 107.77734375 168.875 110.125 C168.04097656 110.98222656 167.20695312 111.83945312 166.34765625 112.72265625 C165.51105469 113.53605469 164.67445313 114.34945312 163.8125 115.1875 C163.15121094 115.84621094 162.48992187 116.50492188 161.80859375 117.18359375 C139.35058076 138.3231324 109.10988396 152.92193348 81.25 165.4375 C80.17258545 165.92814941 79.0951709 166.41879883 77.98510742 166.92431641 C76.97810791 167.36694824 75.9711084 167.80958008 74.93359375 168.265625 C74.0408374 168.66168945 73.14808105 169.05775391 72.22827148 169.46582031 C69.56011687 170.26289611 68.37620939 170.18740558 65.8125 169.1875 C64.36091379 168.21696271 62.94771109 167.18812529 61.5625 166.125 C30.70746537 144.11777006 -11.65545756 134.9984676 -48.92602539 135.00219727 C-51.35255742 135.00002014 -53.77862664 134.98183382 -56.20507812 134.96289062 C-66.054974 134.92649761 -75.45120081 135.56883765 -85.1875 137.1875 C-86.2175415 137.35386963 -87.24758301 137.52023926 -88.30883789 137.69165039 C-114.63515136 142.15839804 -139.85469712 150.7543607 -163.09375 163.99609375 C-165.09398049 165.13428461 -167.120181 166.17733276 -169.1875 167.1875 C-172.67238805 162.87119196 -176.13638769 158.53940092 -179.58349609 154.19287109 C-181.03378374 152.37968042 -182.50651341 150.58823409 -183.98828125 148.80078125 C-184.79652344 147.79402344 -185.60476563 146.78726563 -186.4375 145.75 C-187.16453125 144.86441406 -187.8915625 143.97882813 -188.640625 143.06640625 C-191.04107698 138.59889839 -190.88409296 134.73519295 -189.58398438 129.98022461 C-188.7438198 127.5693961 -187.80496001 125.22719552 -186.8125 122.875 C-186.27882813 121.58154663 -186.27882813 121.58154663 -185.734375 120.26196289 C-180.00572787 106.68976076 -173.34866583 93.76762534 -164.1875 82.1875 C-163.43726563 81.16269531 -162.68703125 80.13789062 -161.9140625 79.08203125 C-138.13501819 46.95047424 -105.06970209 25.36194183 -68.1875 11.1875 C-67.02347656 10.73503906 -65.85945313 10.28257812 -64.66015625 9.81640625 C-56.73952053 6.95642418 -48.74258759 5.11443186 -40.5 3.4375 C-39.46681641 3.22657715 -38.43363281 3.0156543 -37.36914062 2.79833984 C-24.94449675 0.38814874 -12.61662887 -0.0193394 0 0 Z " fill="#57A7D9" transform="translate(512.1875,444.8125)"/>
<path d="M0 0 C0.81970276 -0.00133942 1.63940552 -0.00267883 2.48394775 -0.00405884 C15.26413192 0.00046374 27.56863656 0.73800686 40.125 3.25 C41.24140869 3.45206055 42.35781738 3.65412109 43.50805664 3.86230469 C52.54433141 5.55027777 61.10299765 7.91461601 69.8125 10.875 C70.45709167 11.09242859 71.10168335 11.30985718 71.76580811 11.53387451 C112.48323011 25.31451914 112.48323011 25.31451914 118.4296875 35.48046875 C118.65914062 36.06441406 118.88859375 36.64835938 119.125 37.25 C63.47983717 60.92422737 2.60517025 77.8676414 -58.14575195 79.11499023 C-59.9370329 79.16369576 -61.72776652 79.23930754 -63.5168457 79.34057617 C-77.98777555 80.14386151 -77.98777555 80.14386151 -82.72518921 77.03637695 C-86.50402588 73.60669726 -89.15962477 69.53865721 -91.875 65.25 C-92.8750916 63.96638558 -93.89009011 62.69389143 -94.93359375 61.4453125 C-95.71863281 60.43210937 -96.50367188 59.41890625 -97.3125 58.375 C-100.23529909 54.60695027 -103.17841642 50.86212413 -106.19921875 47.171875 C-107.02498413 46.15843018 -107.02498413 46.15843018 -107.86743164 45.12451172 C-108.93284141 43.81963569 -110.00342429 42.51896149 -111.07983398 41.22314453 C-113.48978973 38.26120127 -115.13850575 35.99748589 -115.875 32.25 C-80.69778668 10.87576608 -41.07959586 0.03971285 0 0 Z " fill="#24679E" transform="translate(459.875,578.75)"/>
<path d="M0 0 C3.84389819 3.41233782 5.74245395 6.86691333 6.16113281 11.96020508 C6.74862917 40.77143649 -2.48185517 64.69922869 -22.3125 85.6875 C-24.60516026 88.04212405 -26.53277011 89.27440334 -29.50390625 90.8046875 C-33.88231641 93.2384344 -37.54179392 95.51073937 -40 100 C-41.7867741 108.78550559 -41.27255046 117.94832017 -40.78979492 126.85302734 C-41.19126162 132.86337085 -44.88678403 136.13630929 -49 140.23046875 C-49.47695313 140.70696365 -49.95390625 141.18345856 -50.4453125 141.6743927 C-51.44815127 142.67422681 -52.45340287 143.67164613 -53.4609375 144.66674805 C-55.00061549 146.18810816 -56.53207895 147.71738056 -58.0625 149.24804688 C-65.55623436 156.70415624 -65.55623436 156.70415624 -69 159 C-70.32 158.67 -71.64 158.34 -73 158 C-73 146.45 -73 134.9 -73 123 C-75.97 123 -78.94 123 -82 123 C-85.12001827 120.77902648 -87.36536957 118.72905384 -90 116 C-91.075131 114.94031641 -92.15335134 113.88376216 -93.23388672 112.82958984 C-96.34891519 109.78147574 -99.43487423 106.70575351 -102.51147461 103.61889648 C-104.45377265 101.67118197 -106.4014314 99.7289407 -108.34960938 97.78710938 C-109.58625875 96.54980017 -110.82259842 95.31218132 -112.05859375 94.07421875 C-112.64080185 93.49403488 -113.22300995 92.91385101 -113.82286072 92.31608582 C-118.95179524 87.15691432 -118.95179524 87.15691432 -119.125 83 C-119 80 -119 80 -118 78 C-119.52923096 78.01571045 -119.52923096 78.01571045 -121.08935547 78.03173828 C-124.86503602 78.06788727 -128.64070121 78.09088177 -132.41650391 78.10986328 C-134.05194672 78.11993254 -135.68737149 78.13358881 -137.32275391 78.15087891 C-139.6709437 78.17508705 -142.01889588 78.18647357 -144.3671875 78.1953125 C-145.46726639 78.21079636 -145.46726639 78.21079636 -146.58956909 78.22659302 C-148.39462697 78.22699368 -150.1990783 78.12212755 -152 78 C-152.66 77.34 -153.32 76.68 -154 76 C-153.89340261 71.11594895 -151.10581877 68.55102612 -147.79296875 65.33203125 C-147.27116531 64.81114426 -146.74936188 64.29025726 -146.21174622 63.75358582 C-145.10934434 62.65721075 -144.00210072 61.5656853 -142.89038086 60.47875977 C-141.19326676 58.81814275 -139.51269287 57.14209091 -137.83398438 55.46289062 C-136.75875089 54.39748961 -135.68260859 53.33300487 -134.60546875 52.26953125 C-134.10428024 51.77056839 -133.60309174 51.27160553 -133.0867157 50.75752258 C-129.49206489 47.25903475 -127.16128922 45.08314038 -122.07421875 44.88745117 C-120.95660156 44.93877197 -119.83898437 44.99009277 -118.6875 45.04296875 C-104.50573593 46.10902793 -104.50573593 46.10902793 -91.734375 41.36328125 C-89.13382084 38.72461792 -87.05229522 35.7745946 -85.07958984 32.64648438 C-73.37306201 14.79283813 -47.84793222 3.94841111 -27.81640625 -0.74609375 C-18.95252262 -2.41743722 -8.43723057 -3.78814434 0 0 Z " fill="#F5F2EE" transform="translate(661,241)"/>
<path d="M0 0 C1.94960776 0.20970222 3.89972509 0.41590143 5.85229492 0.59594727 C14.31355517 1.38059315 22.25996994 2.84412464 30.44921875 5.09765625 C33.96200757 5.99034516 37.41363159 6.50165665 41 7 C43.08984375 7.578125 43.08984375 7.578125 44.9375 8.25 C47.89186546 9.29062701 50.85168391 10.26858683 53.8515625 11.16796875 C66.4977468 14.96893696 66.4977468 14.96893696 72.11328125 18.05078125 C74.35316876 19.17768118 76.62489601 19.94660441 79 20.75 C96.95907436 27.13052162 114.87676587 37.45150816 130.5 48.28125 C132.86898379 49.90992636 135.28259031 51.4014081 137.75 52.875 C139.35875 53.926875 139.35875 53.926875 141 55 C141 55.66 141 56.32 141 57 C141.53625 57.2475 142.0725 57.495 142.625 57.75 C145.5823982 59.30652537 148.29724051 61.03435673 151 63 C151 63.66 151 64.32 151 65 C151.721875 65.2475 152.44375 65.495 153.1875 65.75 C156.27606582 67.12269592 158.51011418 68.72353296 161 71 C161 71.66 161 72.32 161 73 C161.8353125 73.37125 161.8353125 73.37125 162.6875 73.75 C165.42410913 75.22924818 167.67650869 76.93467439 170 79 C170 79.66 170 80.32 170 81 C170.9590625 81.4021875 170.9590625 81.4021875 171.9375 81.8125 C174 83 174 83 175 86 C175.99 86.33 176.98 86.66 178 87 C178 87.66 178 88.32 178 89 C178.9590625 89.4021875 178.9590625 89.4021875 179.9375 89.8125 C182 91 182 91 183 94 C183.99 94.33 184.98 94.66 186 95 C186 95.66 186 96.32 186 97 C186.66 97 187.32 97 188 97 C191 100.46153846 191 100.46153846 191 103 C191.66 103 192.32 103 193 103 C194.5078125 104.6796875 194.5078125 104.6796875 196.125 106.875 C196.66382813 107.59429687 197.20265625 108.31359375 197.7578125 109.0546875 C199 111 199 111 199 113 C199.66 113 200.32 113 201 113 C202.5078125 114.64453125 202.5078125 114.64453125 204.125 116.8125 C204.66382813 117.52019531 205.20265625 118.22789062 205.7578125 118.95703125 C207 121 207 121 207 124 C207.66 124 208.32 124 209 124 C210.48046875 126.0546875 210.48046875 126.0546875 212.1875 128.875 C214.50418499 132.62764677 216.86750874 136.29115897 219.4375 139.875 C226.88664231 150.46674923 232.81195727 161.30352976 238.12451172 173.07275391 C238.89015178 174.75818689 239.67946541 176.43282493 240.47265625 178.10546875 C243.11405356 183.70329241 245.21254297 189.34063407 247.1015625 195.234375 C247.83869592 197.50346395 248.63217951 199.71662606 249.5 201.9375 C256.66516604 220.81347505 262.75564645 242.2769069 263.7890625 262.453125 C263.84027783 264.9904407 263.84027783 264.9904407 265 267 C265.22587948 269.17397397 265.39390217 271.35404835 265.53515625 273.53515625 C265.59989388 274.52776207 265.59989388 274.52776207 265.66593933 275.54042053 C265.80458483 277.71410323 265.93476797 279.88814976 266.0625 282.0625 C266.12878601 283.17803253 266.12878601 283.17803253 266.19641113 284.31610107 C269.4024649 339.1950702 269.4024649 339.1950702 264 350 C263.82803799 351.35485219 263.70342732 352.71592109 263.60546875 354.078125 C262.85261313 363.41992253 261.84418189 372.02050406 258.90234375 380.95703125 C257.90594683 384.04291778 257.90594683 384.04291778 257.50390625 387.51171875 C257.01082386 390.92507206 256.16244711 393.76059319 255 397 C254.54055688 398.40113136 254.08513463 399.80358486 253.6328125 401.20703125 C248.9430038 415.57557603 248.9430038 415.57557603 245.9453125 421.8984375 C244.02943959 426.15769214 242.54745935 430.5963258 241 435 C240.34 435 239.68 435 239 435 C238.93167969 435.96421875 238.86335937 436.9284375 238.79296875 437.921875 C238.07680221 442.8962953 235.71899477 446.90105481 233.3125 451.25 C232.85915283 452.08829346 232.40580566 452.92658691 231.9387207 453.7902832 C231.03959687 455.45009308 230.13599897 457.1074886 229.22753906 458.76220703 C228.19977134 460.6358186 227.18779929 462.5180833 226.1796875 464.40234375 C219.55176067 476.77331712 219.55176067 476.77331712 217 480 C216.34 480 215.68 480 215 480 C214.938125 480.66 214.87625 481.32 214.8125 482 C213.69621505 486.1216675 211.66238434 489.65750502 209 493 C208.34 493 207.68 493 207 493 C206.79375 493.825 206.5875 494.65 206.375 495.5 C204.86375495 499.34680559 202.8876476 502.05128078 200.33984375 505.265625 C198.93551917 506.96821495 198.93551917 506.96821495 198 509 C197.34 509 196.68 509 196 509 C195.64035156 510.05960938 195.64035156 510.05960938 195.2734375 511.140625 C193.79072165 514.46991336 191.90315039 516.90415518 189.625 519.75 C184.8515214 525.78874871 180.40069419 532.0194814 176.02392578 538.35058594 C175.30245361 539.38747559 175.30245361 539.38747559 174.56640625 540.4453125 C174.14302979 541.05906738 173.71965332 541.67282227 173.28344727 542.30517578 C171.96299457 544.0488666 170.64897974 545.56130022 169 547 C168.34 547 167.68 547 167 547 C166.92394531 547.54914062 166.84789062 548.09828125 166.76953125 548.6640625 C165.71648606 551.86061592 163.87009485 553.82447181 161.6875 556.375 C157.89926653 560.8652698 157.89926653 560.8652698 154.5625 565.6875 C154.046875 566.450625 153.53125 567.21375 153 568 C152.34 568 151.68 568 151 568 C150.62875 568.804375 150.62875 568.804375 150.25 569.625 C148.69347463 572.5823982 146.96564327 575.29724051 145 578 C144.34 578 143.68 578 143 578 C142.7525 578.70125 142.505 579.4025 142.25 580.125 C140.82819762 583.39514548 139.12753712 586.141122 137 589 C136.34 589 135.68 589 135 589 C134.566875 589.8971875 134.566875 589.8971875 134.125 590.8125 C133 593 133 593 131 596 C130.34 596 129.68 596 129 596 C128.731875 596.804375 128.46375 597.60875 128.1875 598.4375 C127.795625 599.283125 127.40375 600.12875 127 601 C126.01 601.33 125.02 601.66 124 602 C122.83046584 604.42383077 122.83046584 604.42383077 122 607 C121.67 607.66 121.34 608.32 121 609 C120.34 609 119.68 609 119 609 C118.67 610.32 118.34 611.64 118 613 C117.34 613 116.68 613 116 613 C115.79375 613.66 115.5875 614.32 115.375 615 C113.50875748 619.07180186 111.02438473 622.68796998 108 626 C107.34 626 106.68 626 106 626 C105.71125 626.5775 105.4225 627.155 105.125 627.75 C104.08333333 629.83333333 103.04166667 631.91666667 102 634 C101.34 634 100.68 634 100 634 C99.690625 634.61875 99.38125 635.2375 99.0625 635.875 C98.375 637.25 97.6875 638.625 97 640 C96.34 640 95.68 640 95 640 C94.9175 640.5775 94.835 641.155 94.75 641.75 C93.78594442 644.64216674 92.15717717 645.85442055 90 648 C88.75982531 649.6219752 87.55344035 651.27013227 86.375 652.9375 C82.858141 657.84795546 79.22426556 662.64629717 75.51904297 667.41455078 C73.26152523 670.328416 71.08263186 673.27148888 69 676.3125 C68.01 677.6428125 68.01 677.6428125 67 679 C66.34 679 65.68 679 65 679 C64.731875 679.804375 64.46375 680.60875 64.1875 681.4375 C63.795625 682.283125 63.40375 683.12875 63 684 C62.01 684.33 61.02 684.66 60 685 C59.31873966 686.66075482 58.65491334 688.32867994 58 690 C56.5779956 691.8780172 55.09366661 693.70986761 53.5625 695.5 C51.24132459 698.22269669 49.14499087 700.75163917 47.33984375 703.84375 C46.67662109 704.91109375 46.67662109 704.91109375 46 706 C45.34 706 44.68 706 44 706 C43.731875 706.804375 43.46375 707.60875 43.1875 708.4375 C42.795625 709.283125 42.40375 710.12875 42 711 C41.01 711.33 40.02 711.66 39 712 C38.30341637 713.65438613 37.63903117 715.32254318 37 717 C36.01979625 718.0194119 35.02196992 719.02246356 34 720 C33.67 720.99 33.34 721.98 33 723 C32.34 723 31.68 723 31 723 C30.62875 723.804375 30.62875 723.804375 30.25 724.625 C28.69347463 727.5823982 26.96564327 730.29724051 25 733 C24.34 733 23.68 733 23 733 C22.62875 733.804375 22.62875 733.804375 22.25 734.625 C20.29767465 738.33441817 18.20469326 741.83658103 15.17578125 744.76171875 C12.45268542 747.56303636 10.29517119 750.61564308 8.0625 753.8125 C5.53515625 757.39453125 5.53515625 757.39453125 4.27783203 759.17431641 C3.38817382 760.4454024 2.50974004 761.7243877 1.64013672 763.00927734 C0.47490234 764.70692171 -0.75750568 766.35805742 -2 768 C-2.66 768 -3.32 768 -4 768 C-4.20625 768.66 -4.4125 769.32 -4.625 770 C-6.49124252 774.07180186 -8.97561527 777.68796998 -12 781 C-12.66 781 -13.32 781 -14 781 C-14.33 781.99 -14.66 782.98 -15 784 C-15.66 784 -16.32 784 -17 784 C-17.2475 784.70125 -17.495 785.4025 -17.75 786.125 C-19.17180238 789.39514548 -20.87246288 792.141122 -23 795 C-23.66 795 -24.32 795 -25 795 C-25.309375 795.78375 -25.61875 796.5675 -25.9375 797.375 C-27 800 -27 800 -28 802 C-28.66 802 -29.32 802 -30 802 C-30.37125 802.928125 -30.37125 802.928125 -30.75 803.875 C-32.27919483 806.47463121 -33.2069638 806.92465727 -36 808 C-38.83984375 808.265625 -38.83984375 808.265625 -41.9375 808.25 C-42.95714844 808.25515625 -43.97679687 808.2603125 -45.02734375 808.265625 C-49.75152819 807.84349025 -52.12783022 806.89843163 -55.46484375 803.4609375 C-56.28082031 802.44257812 -57.09679687 801.42421875 -57.9375 800.375 C-58.3691748 799.83955566 -58.80084961 799.30411133 -59.24560547 798.75244141 C-60.5086611 797.17752018 -61.75465224 795.58896046 -63 794 C-63.65355469 793.175 -64.30710937 792.35 -64.98046875 791.5 C-69 786.30611639 -69 786.30611639 -69 784 C-69.99 783.67 -70.98 783.34 -72 783 C-73.51125313 781.00549732 -74.89119539 779.03110008 -76.25 776.9375 C-78.94339204 772.89603015 -81.64861594 769.0922612 -84.9375 765.5 C-87.38442964 762.8265028 -88.99917487 760.55848934 -90 757 C-90.66 757 -91.32 757 -92 757 C-92.33 755.35 -92.66 753.7 -93 752 C-93.66 752 -94.32 752 -95 752 C-96.5859375 750.20703125 -96.5859375 750.20703125 -98.375 747.8125 C-100.35603259 745.18215193 -102.3338294 742.59769278 -104.4375 740.0625 C-106 738 -106 738 -106 736 C-106.99 735.67 -107.98 735.34 -109 735 C-111.04296875 732.56640625 -111.04296875 732.56640625 -113.1875 729.5625 C-113.90292969 728.57378906 -114.61835938 727.58507812 -115.35546875 726.56640625 C-117 724 -117 724 -117 722 C-117.66 722 -118.32 722 -119 722 C-119 721.01 -119 720.02 -119 719 C-119.66 719 -120.32 719 -121 719 C-122.75644379 716.97356232 -124.38714022 714.94838717 -126 712.8125 C-126.67675781 711.9452832 -126.67675781 711.9452832 -127.3671875 711.06054688 C-129.36966551 708.43895955 -130.91003697 706.22896841 -132.125 703.13671875 C-132.41375 702.43160156 -132.7025 701.72648438 -133 701 C-133.99 700.67 -134.98 700.34 -136 700 C-137.38671875 698.44140625 -137.38671875 698.44140625 -138.6875 696.5625 C-139.34298828 695.63630859 -139.34298828 695.63630859 -140.01171875 694.69140625 C-141 693 -141 693 -141 691 C-141.66 691 -142.32 691 -143 691 C-144.02611949 689.34928604 -145.02308143 687.68029994 -146 686 C-146.556875 685.46375 -147.11375 684.9275 -147.6875 684.375 C-149 683 -149 683 -149 680 C-149.99 679.67 -150.98 679.34 -152 679 C-153.82470012 676.88794553 -155.51748205 674.78998471 -157.1875 672.5625 C-157.88262695 671.6643457 -157.88262695 671.6643457 -158.59179688 670.74804688 C-162 666.26568253 -162 666.26568253 -162 664 C-162.66 664 -163.32 664 -164 664 C-165.5078125 662.1015625 -165.5078125 662.1015625 -167.125 659.625 C-167.66382813 658.81289063 -168.20265625 658.00078125 -168.7578125 657.1640625 C-170 655 -170 655 -170 653 C-170.99 652.67 -171.98 652.34 -173 652 C-173 651.34 -173 650.68 -173 650 C-173.66 650 -174.32 650 -175 650 C-176.79826445 647.74185152 -178.4746801 645.48722261 -180.125 643.125 C-180.59292969 642.47402344 -181.06085938 641.82304688 -181.54296875 641.15234375 C-185 636.26412172 -185 636.26412172 -185 634 C-185.99 633.67 -186.98 633.34 -188 633 C-188.91792736 631.64010762 -189.82758459 630.27379336 -190.69140625 628.87890625 C-192.88181832 625.73386684 -195.56743218 623.02768027 -198.1953125 620.24609375 C-200.07182322 617.91060963 -201.0380034 615.8215261 -202 613 C-202.66 613 -203.32 613 -204 613 C-205.5078125 611.1015625 -205.5078125 611.1015625 -207.125 608.625 C-207.66382813 607.81289063 -208.20265625 607.00078125 -208.7578125 606.1640625 C-210 604 -210 604 -210 602 C-210.66 602 -211.32 602 -212 602 C-213.44054021 600.26059253 -214.80184465 598.45528806 -216.125 596.625 C-216.93740306 595.51329919 -217.75122887 594.40263683 -218.56640625 593.29296875 C-218.9752002 592.73528809 -219.38399414 592.17760742 -219.80517578 591.60302734 C-221.49789668 589.33200048 -223.27560139 587.13485453 -225.0625 584.9375 C-228.52558507 580.65150363 -231.75875207 576.23134384 -234.96875 571.75390625 C-237.69355293 568.05970228 -240.59586172 564.52420466 -243.53125 560.99609375 C-245 559 -245 559 -245 557 C-245.66 557 -246.32 557 -247 557 C-248.5078125 555.35546875 -248.5078125 555.35546875 -250.125 553.1875 C-250.66382813 552.47980469 -251.20265625 551.77210938 -251.7578125 551.04296875 C-253 549 -253 549 -253 546 C-253.66 546 -254.32 546 -255 546 C-256.2265625 544.63671875 -256.2265625 544.63671875 -257.625 542.6875 C-258.40617187 541.60662109 -258.40617187 541.60662109 -259.203125 540.50390625 C-259.79609375 539.67761719 -260.3890625 538.85132813 -261 538 C-262.07507813 536.55947266 -262.07507813 536.55947266 -263.171875 535.08984375 C-263.89890625 534.11144531 -264.6259375 533.13304687 -265.375 532.125 C-266.40753906 530.73667969 -266.40753906 530.73667969 -267.4609375 529.3203125 C-269 527 -269 527 -269 525 C-269.99 524.67 -270.98 524.34 -272 524 C-272.9695236 522.62929422 -273.92936838 521.24969206 -274.81640625 519.82421875 C-276.64955896 516.99886457 -278.75299696 514.38478606 -280.828125 511.734375 C-282 510 -282 510 -282 508 C-282.66 508 -283.32 508 -284 508 C-284.33 506.68 -284.66 505.36 -285 504 C-285.66 504 -286.32 504 -287 504 C-288.42952778 502.02823755 -289.71953085 500.06611293 -291 498 C-291.45246094 497.30390625 -291.90492188 496.6078125 -292.37109375 495.890625 C-296 490.25708215 -296 490.25708215 -296 488 C-296.66 488 -297.32 488 -298 488 C-298.35191406 487.33355469 -298.70382812 486.66710937 -299.06640625 485.98046875 C-301.7087595 481.04761608 -304.43461202 476.24592128 -307.5 471.5625 C-317 456.83644209 -317 456.83644209 -317 450 C-317.66 450 -318.32 450 -319 450 C-320.00696568 447.89915791 -321.0053589 445.79420511 -322 443.6875 C-322.556875 442.51574219 -323.11375 441.34398437 -323.6875 440.13671875 C-325 437 -325 437 -325 434 C-325.66 434 -326.32 434 -327 434 C-327.39832031 432.92621094 -327.79664063 431.85242188 -328.20703125 430.74609375 C-328.74209782 429.30986242 -329.27725914 427.87366638 -329.8125 426.4375 C-330.20405273 425.38079102 -330.20405273 425.38079102 -330.60351562 424.30273438 C-331.84362291 420.98047164 -333.12450398 417.7154644 -334.546875 414.46484375 C-336.11246929 410.73182726 -337.31789863 407.00938715 -338.4375 403.125 C-338.65067871 402.39394043 -338.86385742 401.66288086 -339.08349609 400.90966797 C-340.78740716 394.96440333 -342.25675474 388.97711048 -343.61645508 382.94458008 C-344.46925589 379.17000953 -345.44958705 375.49741959 -346.625 371.8125 C-348.52408939 365.18632943 -348.83132207 358.28317809 -349.35400391 351.4387207 C-349.42538574 350.50890381 -349.49676758 349.57908691 -349.5703125 348.62109375 C-349.65949951 347.35930298 -349.65949951 347.35930298 -349.75048828 346.07202148 C-349.88900072 343.94110521 -349.88900072 343.94110521 -351 342 C-351.2485981 339.40966923 -351.43104305 336.84722155 -351.5625 334.25 C-351.6042334 333.42870605 -351.6459668 332.60741211 -351.68896484 331.76123047 C-352.44359442 314.78668529 -352.33761635 297.72175614 -351.5625 280.75 C-351.52334473 279.88133301 -351.48418945 279.01266602 -351.44384766 278.11767578 C-351.13069673 272.26139345 -351.13069673 272.26139345 -350 270 C-349.83908509 268.66577729 -349.72655759 267.32551609 -349.640625 265.984375 C-348.2964643 247.73610615 -344.48181893 230.35149871 -338.67236328 213.015625 C-337.9424769 210.82755604 -337.23419494 208.63311335 -336.52734375 206.4375 C-333.71819836 197.77859528 -330.69107099 189.32940798 -327 181 C-326.34 181 -325.68 181 -325 181 C-324.896875 180.13375 -324.79375 179.2675 -324.6875 178.375 C-323.94859184 174.74763267 -322.71509942 172.27920815 -321 169 C-320.50101196 168.04432129 -320.50101196 168.04432129 -319.99194336 167.06933594 C-317.35352675 162.03273906 -314.67801594 157.01562742 -312 152 C-311.52046875 151.10152344 -311.0409375 150.20304688 -310.546875 149.27734375 C-300.77007029 131.32061244 -288.11684792 115.04114557 -274.56640625 99.79296875 C-273.05638301 98.06453816 -271.6205365 96.29234011 -270.1875 94.5 C-269.465625 93.675 -268.74375 92.85 -268 92 C-267.34 92 -266.68 92 -266 92 C-266 91.34 -266 90.68 -266 90 C-264.34997172 88.64613064 -262.6825613 87.31321858 -261 86 C-260.67 85.34 -260.34 84.68 -260 84 C-259.34 84 -258.68 84 -258 84 C-258 83.34 -258 82.68 -258 82 C-256.63671875 80.625 -256.63671875 80.625 -254.6875 79 C-251.21437588 76.0555284 -247.84321932 73.02892874 -244.5 69.9375 C-232.52245726 59.03826789 -232.52245726 59.03826789 -226 57 C-226 56.34 -226 55.68 -226 55 C-224.1015625 53.4921875 -224.1015625 53.4921875 -221.625 51.875 C-220.40683594 51.06675781 -220.40683594 51.06675781 -219.1640625 50.2421875 C-217 49 -217 49 -215 49 C-215 48.34 -215 47.68 -215 47 C-214.16855469 46.60167969 -214.16855469 46.60167969 -213.3203125 46.1953125 C-212.59585938 45.84210938 -211.87140625 45.48890625 -211.125 45.125 C-210.40570313 44.77695313 -209.68640625 44.42890625 -208.9453125 44.0703125 C-206.84864981 43.03442457 -206.84864981 43.03442457 -205 41 C-204.01 41 -203.02 41 -202 41 C-202 40.34 -202 39.68 -202 39 C-200.06629769 37.99267601 -198.12789694 36.99436712 -196.1875 36 C-194.56908203 35.1646875 -194.56908203 35.1646875 -192.91796875 34.3125 C-190 33 -190 33 -187 33 C-187 32.34 -187 31.68 -187 31 C-185.08850332 29.9901527 -183.17058431 28.99245505 -181.25 28 C-180.18265625 27.443125 -179.1153125 26.88625 -178.015625 26.3125 C-175 25 -175 25 -171 25 C-171 24.34 -171 23.68 -171 23 C-170.2265625 22.75765625 -169.453125 22.5153125 -168.65625 22.265625 C-167.6146875 21.93046875 -166.573125 21.5953125 -165.5 21.25 C-163.96859375 20.76273438 -163.96859375 20.76273438 -162.40625 20.265625 C-159.82662708 19.30714125 -157.5779411 18.30817245 -155.15625 17.046875 C-150.90194788 14.8669007 -146.56459208 13.39189779 -142 12 C-141.17113281 11.7436377 -140.34226562 11.48727539 -139.48828125 11.22314453 C-131.72383454 8.8554639 -123.91570722 6.79943956 -116 5 C-115.22060059 4.82194824 -114.44120117 4.64389648 -113.63818359 4.46044922 C-105.14181316 2.54083044 -96.75334211 0.6588085 -88.03125 0.17578125 C-85.79728539 0.06201645 -85.79728539 0.06201645 -83 -1 C-58.4025135 -4.01704707 -23.84248945 -7.94749648 0 0 Z M-187 35 C-187.83740723 35.433125 -188.67481445 35.86625 -189.53759766 36.3125 C-206.04305336 44.95162627 -221.52420407 55.28410961 -236 67 C-237.0003125 67.79535156 -238.000625 68.59070313 -239.03125 69.41015625 C-247.45057849 76.2705904 -255.12165243 83.91029496 -262.8125 91.5625 C-263.34838745 92.09312042 -263.8842749 92.62374084 -264.43640137 93.17044067 C-309.08802078 137.48265033 -338.73903659 199.84157619 -347 262 C-347.08613556 262.63536682 -347.17227112 263.27073364 -347.26101685 263.925354 C-349.13068709 278.11089624 -349.36069087 292.20689799 -349.3125 306.5 C-349.31034485 307.64885681 -349.3081897 308.79771362 -349.30596924 309.98138428 C-349.22696256 336.21753738 -346.6835178 360.56539164 -340 386 C-339.74234863 387.00095703 -339.48469727 388.00191406 -339.21923828 389.03320312 C-334.89565816 405.61099809 -328.83469841 421.30550736 -322 437 C-321.43176514 438.31242676 -321.43176514 438.31242676 -320.85205078 439.65136719 C-311.81255001 460.27880465 -299.84715551 479.54773262 -287 498 C-286.58331055 498.59893066 -286.16662109 499.19786133 -285.73730469 499.81494141 C-282.87250104 503.91163367 -279.94623027 507.9616148 -277 512 C-276.48211914 512.71236816 -275.96423828 513.42473633 -275.43066406 514.15869141 C-267.94646379 524.44127479 -260.28873993 534.56816476 -252.44921875 544.58203125 C-249.01722362 548.96773528 -245.62807965 553.38519101 -242.25 557.8125 C-241.44296631 558.86993408 -241.44296631 558.86993408 -240.61962891 559.94873047 C-239.5730362 561.32011675 -238.52648546 562.69153506 -237.47998047 564.06298828 C-234.45661906 568.01999082 -231.41727147 571.96467076 -228.37890625 575.91015625 C-226.80188021 577.95847742 -225.22634141 580.00794455 -223.65234375 582.05859375 C-217.07601071 590.62386654 -210.44899216 599.14919536 -203.81445312 607.66943359 C-200.87486662 611.44517266 -197.93752285 615.22265535 -195 619 C-193.83334461 620.50000877 -192.66667793 622.00000876 -191.5 623.5 C-142.49999999 686.50000001 -142.49999999 686.50000001 -140.74926758 688.75097656 C-139.58508741 690.24775643 -138.4208623 691.74450134 -137.2565918 693.24121094 C-134.30150827 697.04019058 -131.34725986 700.83981465 -128.39453125 704.640625 C-122.67627485 711.99977237 -116.94818793 719.35051275 -111.18286133 726.67285156 C-107.43689969 731.43435467 -103.71674192 736.21566726 -100 741 C-94.46554613 748.12333177 -88.90691813 755.22696727 -83.32666016 762.31445312 C-81.04913791 765.20808831 -78.7747953 768.10422097 -76.5 771 C-76.04818359 771.57492187 -75.59636719 772.14984375 -75.13085938 772.7421875 C-72.32562571 776.31175729 -69.52251535 779.88298015 -66.72143555 783.45581055 C-65.34084452 785.21390506 -63.95566318 786.96831146 -62.5703125 788.72265625 C-60.93489093 790.79698272 -59.33239145 792.88590961 -57.7421875 794.99609375 C-52.31101338 802.1971286 -52.31101338 802.1971286 -44.0625 805.30078125 C-38.89376186 805.64340594 -36.00950327 804.41234321 -32 801 C-26.75863201 795.7066085 -22.36085619 789.65326847 -17.85546875 783.73828125 C-14.68224154 779.5740497 -11.46716964 775.44282452 -8.25 771.3125 C-7.65759521 770.55146973 -7.06519043 769.79043945 -6.45483398 769.00634766 C-5.24148992 767.44766343 -4.02802888 765.88907025 -2.81445312 764.33056641 C0.12513336 760.55482736 3.06250584 756.77736693 6 753 C9.54572028 748.44050616 13.09199896 743.8814516 16.640625 739.32421875 C22.57871373 731.69684616 28.50096942 724.05847519 34.38671875 716.390625 C37.51047583 712.32961892 40.66322609 708.29122512 43.8125 704.25 C48.40470017 698.35568246 52.96908363 692.44154997 57.5 686.5 C62.62055357 679.78523804 67.78985749 673.10993777 72.98046875 666.44921875 C76.33493292 662.14382388 79.67671851 657.82951238 83 653.5 C86.97898999 648.31684199 90.98537918 643.15560138 95 638 C100.69376534 630.6871943 106.35828647 623.3530333 112 616 C118.24233341 607.8641588 124.51849483 599.75591816 130.81835938 591.66455078 C135.90460897 585.12924698 140.95892306 578.57020361 146 572 C147.58279677 569.93708821 149.1661438 567.8745985 150.75 565.8125 C151.15613525 565.28366211 151.56227051 564.75482422 151.98071289 564.20996094 C154.37966266 561.09109624 156.79146158 557.98273711 159.21484375 554.8828125 C167.95727168 543.69704238 176.55118294 532.40935623 185 521 C185.55010742 520.25814453 186.10021484 519.51628906 186.66699219 518.75195312 C199.65101834 501.18207944 212.3574806 483.10300477 223 464 C223.44762695 463.19900879 223.89525391 462.39801758 224.35644531 461.57275391 C240.0561158 433.18452385 251.38694928 402.76857698 258 371 C258.39445313 369.19789063 258.39445313 369.19789063 258.796875 367.359375 C259.63912784 363.25124382 260.35518447 359.14306669 261 355 C261.13825195 354.1234375 261.27650391 353.246875 261.41894531 352.34375 C266.01483076 321.80134199 265.90860311 289.49034866 261 259 C260.83371094 257.94570801 260.66742187 256.89141602 260.49609375 255.80517578 C252.37377223 205.92058443 232.34350882 156.21440966 200 117 C199.24332031 116.05382812 198.48664062 115.10765625 197.70703125 114.1328125 C193.38473721 108.76156242 188.90130295 103.5684928 184.25390625 98.4765625 C182.7257804 96.79747795 181.21314142 95.10419177 179.71484375 93.3984375 C175.74516385 88.89084214 171.73905082 84.70157731 167.14453125 80.83203125 C164.63280098 78.68630903 162.23084816 76.43785871 159.8125 74.1875 C143.13374382 59.0560227 123.9099101 46.46218127 104 36 C103.37383789 35.66838867 102.74767578 35.33677734 102.10253906 34.99511719 C70.93827597 18.60715088 38.06918536 8.15643984 3.3125 2.6875 C2.29881348 2.52797852 1.28512695 2.36845703 0.24072266 2.20410156 C-13.98470316 0.10811266 -28.21381058 -0.20841437 -42.5625 -0.1875 C-43.81664703 -0.18609512 -43.81664703 -0.18609512 -45.09613037 -0.18466187 C-95.01210038 -0.06385039 -142.65707633 12.03683953 -187 35 Z " fill="#F8FBFD" transform="translate(555,101)"/>
<path d="M0 0 C1.32 0.33 2.64 0.66 4 1 C4.13051758 1.65484375 4.26103516 2.3096875 4.39550781 2.984375 C5.00193534 5.99208562 5.62582395 8.99592462 6.25 12 C6.45496094 13.02996094 6.65992188 14.05992187 6.87109375 15.12109375 C8.38104151 22.30478459 9.92754581 29.15797987 15.5 34.3125 C20.49055365 36.71865979 25.60321005 37.8351756 31 39 C31.91652344 39.20753906 32.83304687 39.41507812 33.77734375 39.62890625 C35.84910865 40.09693529 37.92419211 40.55024162 40 41 C40 42.32 40 43.64 40 45 C39.15405273 45.18792114 39.15405273 45.18792114 38.29101562 45.37963867 C35.69022898 45.96673271 33.09537173 46.57693151 30.5 47.1875 C29.613125 47.38408203 28.72625 47.58066406 27.8125 47.78320312 C21.28745969 49.34249585 14.599943 51.09594779 10.69604492 56.95800781 C8.02464653 62.51136422 6.87248704 68.40407164 5.8125 74.4375 C5.48802784 76.20746381 5.16131644 77.97701904 4.83203125 79.74609375 C4.69514893 80.51622803 4.5582666 81.2863623 4.41723633 82.07983398 C4 84 4 84 3 86 C1.68 85.67 0.36 85.34 -1 85 C-1.24907104 83.85785034 -1.24907104 83.85785034 -1.50317383 82.69262695 C-2.2636616 79.23046878 -3.03792572 75.77153266 -3.8125 72.3125 C-4.07353516 71.11431641 -4.33457031 69.91613281 -4.60351562 68.68164062 C-4.86455078 67.52470703 -5.12558594 66.36777344 -5.39453125 65.17578125 C-5.63018799 64.11270752 -5.86584473 63.04963379 -6.10864258 61.9543457 C-7.2444125 58.18991081 -8.50903725 55.11939053 -11.71337891 52.71362305 C-16.83120975 50.30293546 -21.83156548 48.89470262 -27.375 47.8125 C-35.82094595 46.08952703 -35.82094595 46.08952703 -38 45 C-37.67 43.68 -37.34 42.36 -37 41 C-36.04746338 40.75878418 -36.04746338 40.75878418 -35.07568359 40.51269531 C-32.17228196 39.77029716 -29.27375521 39.01032923 -26.375 38.25 C-25.37597656 37.99734375 -24.37695312 37.7446875 -23.34765625 37.484375 C-15.56971387 35.46021763 -15.56971387 35.46021763 -9 31 C-6.12910975 25.00914682 -4.83245723 18.58459438 -3.375 12.125 C-2.94749146 10.25210546 -2.51790762 8.37968304 -2.0859375 6.5078125 C-1.9007959 5.68941895 -1.7156543 4.87102539 -1.52490234 4.02783203 C-1 2 -1 2 0 0 Z " fill="#F4F2EF" transform="translate(387,230)"/>
<path d="M0 0 C0.99 0.33 1.98 0.66 3 1 C3.75195312 2.94604492 3.75195312 2.94604492 4.28125 5.48046875 C4.48363281 6.39763672 4.68601562 7.31480469 4.89453125 8.25976562 C5.19423828 9.70899414 5.19423828 9.70899414 5.5 11.1875 C7.34918033 22.08780466 7.34918033 22.08780466 14.1875 30.125 C20.74925422 33.06604991 28.01756059 34.40691916 35 36 C35 37.32 35 38.64 35 40 C34.42556152 40.12528076 33.85112305 40.25056152 33.25927734 40.37963867 C30.62685619 40.96441488 28.00126155 41.57567968 25.375 42.1875 C24.47136719 42.38408203 23.56773437 42.58066406 22.63671875 42.78320312 C16.82650808 44.16153777 13.15988725 45.65464007 9 50 C7.82804743 51.82861751 7.82804743 51.82861751 7.375 53.8125 C7.15972656 54.57046875 6.94445312 55.3284375 6.72265625 56.109375 C6.48417969 57.06328125 6.24570312 58.0171875 6 59 C5.64469793 60.38025125 5.28921444 61.76045581 4.93359375 63.140625 C3.92720358 67.08705595 2.95688975 71.04129369 2 75 C1.01 75 0.02 75 -1 75 C-1.25394531 73.94941406 -1.50789062 72.89882813 -1.76953125 71.81640625 C-2.81321573 67.53561734 -3.89498819 63.26534557 -5 59 C-5.25007812 58.03449219 -5.50015625 57.06898438 -5.7578125 56.07421875 C-7.16299862 51.26912829 -8.43314955 48.5263428 -13 46 C-18.84828803 43.79388423 -24.78957594 42.5732704 -30.96875 41.72265625 C-33 41 -33 41 -34.28125 38.93359375 C-34.63703125 37.97646484 -34.63703125 37.97646484 -35 37 C-30.82700928 34.21800619 -26.27317015 33.63811832 -21.42382812 32.67578125 C-16.54681792 31.62244981 -12.84990087 30.35515733 -9 27 C-6.27707324 22.00492184 -5.10725856 16.76663916 -3.9375 11.25 C-2.26694915 3.40042373 -2.26694915 3.40042373 0 0 Z " fill="#F3F2EE" transform="translate(699,366)"/>
<path d="M0 0 C5.71783812 2.41738716 9.27990508 6.74732179 11.6484375 12.41796875 C12.81031796 18.70999834 12.06468742 24.22036729 8.85546875 29.765625 C6.21006209 33.38700693 2.75161608 35.73425064 -1.3515625 37.41796875 C-7.84847101 38.25008511 -14.43298902 38.77780847 -19.9765625 34.85546875 C-21.796875 33.171875 -21.796875 33.171875 -23.3515625 31.41796875 C-23.80273438 30.91136719 -24.25390625 30.40476562 -24.71875 29.8828125 C-28.40805314 24.70506637 -28.17036467 18.50522525 -27.3515625 12.41796875 C-25.46347487 6.7638026 -21.55398251 3.34638254 -16.5546875 0.3359375 C-11.48951891 -1.77454941 -5.25049128 -1.2995402 0 0 Z " fill="#213555" transform="translate(625.3515625,270.58203125)"/>
<path d="M0 0 C3.97450448 3.18180553 4.11885146 7.32020837 5.05859375 12.08984375 C6.16886661 15.52201504 7.11686066 16.84362215 10 19 C13.47358779 20.33676483 13.47358779 20.33676483 17.25 21.25 C19.14492188 21.75273437 19.14492188 21.75273437 21.078125 22.265625 C22.04234375 22.50796875 23.0065625 22.7503125 24 23 C24 23.99 24 24.98 24 26 C22.55367188 26.36351562 22.55367188 26.36351562 21.078125 26.734375 C19.81484375 27.06953125 18.5515625 27.4046875 17.25 27.75 C15.37054688 28.23726563 15.37054688 28.23726563 13.453125 28.734375 C9.79898435 30.07367542 8.25619766 30.86639213 6 34 C5.09549705 36.62417522 4.36914892 39.06532967 3.75 41.75 C3.57726562 42.44738281 3.40453125 43.14476562 3.2265625 43.86328125 C2.80511971 45.57246588 2.40081845 47.28586153 2 49 C1.01 49 0.02 49 -1 49 C-1.48919922 47.31970703 -1.48919922 47.31970703 -1.98828125 45.60546875 C-2.42918517 44.13266203 -2.87061921 42.66001393 -3.3125 41.1875 C-3.52583984 40.44951172 -3.73917969 39.71152344 -3.95898438 38.95117188 C-4.17490234 38.23896484 -4.39082031 37.52675781 -4.61328125 36.79296875 C-4.80704346 36.1383667 -5.00080566 35.48376465 -5.20043945 34.80932617 C-6.15377397 32.65202476 -7.18252448 31.49597263 -9 30 C-12.40737982 28.76702394 -12.40737982 28.76702394 -16.1875 27.8125 C-17.45980469 27.46832031 -18.73210937 27.12414062 -20.04296875 26.76953125 C-21.50669922 26.38861328 -21.50669922 26.38861328 -23 26 C-23 25.01 -23 24.02 -23 23 C-22.03578125 22.76925781 -21.0715625 22.53851563 -20.078125 22.30078125 C-18.81484375 21.97464844 -17.5515625 21.64851563 -16.25 21.3125 C-14.99703125 20.99925781 -13.7440625 20.68601562 -12.453125 20.36328125 C-8.48750089 18.79766721 -7.19166289 17.61548101 -5 14 C-3.71735084 10.70880514 -3.71735084 10.70880514 -2.8125 7.25 C-1.074883 1.074883 -1.074883 1.074883 0 0 Z " fill="#F3F2EF" transform="translate(328,344)"/>
<path d="M0 0 C2 0 2 0 4.04296875 1.91796875 C5.02920786 2.94477297 6.01478183 3.97221615 7 5 C8.47250871 6.478007 9.9480492 7.95299662 11.42578125 9.42578125 C15.95052083 13.95052083 20.47526042 18.47526042 25 23 C24.505 24.485 24.505 24.485 24 26 C20.0015511 26.67625655 16.00113822 27.33986259 12 28 C10.1746875 28.309375 10.1746875 28.309375 8.3125 28.625 C-1.87319885 29.77809798 -1.87319885 29.77809798 -6.5625 28.0625 C-8.41192901 25.40897142 -8.71845462 23.16093786 -8.6015625 19.95703125 C-7.38122926 13.9583802 -4.37139256 4.37139256 0 0 Z " fill="#57A9DB" transform="translate(537,344)"/>
<path d="M0 0 C0.33 0 0.66 0 1 0 C0.67 17.16 0.34 34.32 0 52 C-0.33 52 -0.66 52 -1 52 C-2.09020783 20.50575142 -2.09020783 20.50575142 -2.1875 9.125 C-2.20039063 8.40844238 -2.21328125 7.69188477 -2.2265625 6.95361328 C-2.2298808 5.30068605 -2.12628295 3.64809953 -2 2 C-1.34 1.34 -0.68 0.68 0 0 Z " fill="#D6E9F5" transform="translate(206,371)"/>
<path d="M0 0 C0 0.99 0 1.98 0 3 C2.31 3.66 4.62 4.32 7 5 C6.67 5.66 6.34 6.32 6 7 C0.06 5.515 0.06 5.515 -6 4 C-6 3.01 -6 2.02 -6 1 C-4 0 -4 0 0 0 Z " fill="#EAEBEC" transform="translate(311,366)"/>
<path d="M0 0 C1.32 0.33 2.64 0.66 4 1 C4 3.31 4 5.62 4 8 C3.01 7.67 2.02 7.34 1 7 C-0.485 9.475 -0.485 9.475 -2 12 C-3.40907283 9.18185434 -2.50872691 7.82722796 -1.5625 4.875 C-1.27503906 3.96492187 -0.98757813 3.05484375 -0.69140625 2.1171875 C-0.46324219 1.41851562 -0.23507812 0.71984375 0 0 Z " fill="#EAEAEB" transform="translate(387,230)"/>
<path d="M0 0 C0 4.33174693 -2.65822583 6.22353653 -5.5 9.1875 C-6.28697266 10.02571289 -6.28697266 10.02571289 -7.08984375 10.88085938 C-8.38661613 12.26015364 -9.69246259 13.63090644 -11 15 C-11.66 14.67 -12.32 14.34 -13 14 C-8.71 9.38 -4.42 4.76 0 0 Z " fill="#1A2643" transform="translate(714,566)"/>
<path d="M0 0 C0.99 0.66 1.98 1.32 3 2 C-0.96 2.66 -4.92 3.32 -9 4 C-9.33 3.01 -9.66 2.02 -10 1 C-6.47005387 -0.17664871 -3.70544587 -0.19850603 0 0 Z " fill="#E6E7E7" transform="translate(728,405)"/>
<path d="M0 0 C0.66 0.33 1.32 0.66 2 1 C2.125 7.75 2.125 7.75 1 10 C-0.32 9.67 -1.64 9.34 -3 9 C-2.5359375 7.88625 -2.5359375 7.88625 -2.0625 6.75 C-1.1905075 4.49307824 -0.52332993 2.3549847 0 0 Z " fill="#EBEBEB" transform="translate(389,306)"/>
<path d="M0 0 C0 0.99 0 1.98 0 3 C-1.45635371 3.22174933 -2.91522956 3.42698698 -4.375 3.625 C-5.18710937 3.74101562 -5.99921875 3.85703125 -6.8359375 3.9765625 C-7.55007813 3.98429688 -8.26421875 3.99203125 -9 4 C-9.66 3.34 -10.32 2.68 -11 2 C-7.12315913 0.80712589 -4.08378077 0 0 0 Z " fill="#EAEBEB" transform="translate(634,241)"/>
<path d="M0 0 C1.65 0.33 3.3 0.66 5 1 C5 1.66 5 2.32 5 3 C2 5 2 5 -0.1875 4.625 C-0.785625 4.41875 -1.38375 4.2125 -2 4 C-1.34 2.68 -0.68 1.36 0 0 Z " fill="#E2E2E5" transform="translate(590,395)"/>
<path d="M0 0 C-3.75 3.875 -3.75 3.875 -6 5 C-6.66 4.67 -7.32 4.34 -8 4 C-7.6875 2.0625 -7.6875 2.0625 -7 0 C-3.86650268 -1.04449911 -3.01031744 -0.93423645 0 0 Z " fill="#EBECED" transform="translate(357,271)"/>
<path d="M0 0 C3.36591866 1.44253657 5.51047079 3.33264727 8 6 C7.67 6.99 7.34 7.98 7 9 C5.02 9 3.04 9 1 9 C2.32 8.01 3.64 7.02 5 6 C3.35 4.02 1.7 2.04 0 0 Z " fill="#61C1F1" transform="translate(554,361)"/>
<path d="M0 0 C0.99 0.33 1.98 0.66 3 1 C-0.96 4.465 -0.96 4.465 -5 8 C-5.66 7.67 -6.32 7.34 -7 7 C-4.69 4.69 -2.38 2.38 0 0 Z " fill="#5EB8E9" transform="translate(694,560)"/>
<path d="M0 0 C0.99 0.33 1.98 0.66 3 1 C1.02 2.98 -0.96 4.96 -3 7 C-3.99 6.67 -4.98 6.34 -6 6 C-4.02 4.02 -2.04 2.04 0 0 Z " fill="#162544" transform="translate(603,389)"/>
<path d="M0 0 C3.36720387 1.39332574 4.9859524 2.9789286 7 6 C6.34 6.66 5.68 7.32 5 8 C0 2.25 0 2.25 0 0 Z " fill="#2F3D58" transform="translate(544,331)"/>
<path d="M0 0 C0.33 0.99 0.66 1.98 1 3 C-1.31 4.98 -3.62 6.96 -6 9 C-4.25618453 5.51236907 -2.47193291 2.96631949 0 0 Z " fill="#5EBAEB" transform="translate(681,635)"/>
<path d="M0 0 C0.33 0 0.66 0 1 0 C0.125 6.75 0.125 6.75 -1 9 C-1.99 8.67 -2.98 8.34 -4 8 C-2.68 5.36 -1.36 2.72 0 0 Z " fill="#1A2644" transform="translate(686,545)"/>
<path d="M0 0 C3 1 3 1 3 1 Z M-2 1 C-1.34 1.33 -0.68 1.66 0 2 C-1.65 3.32 -3.3 4.64 -5 6 C-5 4.68 -5 3.36 -5 2 C-4.01 1.67 -3.02 1.34 -2 1 Z " fill="#1E3151" transform="translate(340,374)"/>
<path d="M0 0 C0 2.31 0 4.62 0 7 C-0.99 7.33 -1.98 7.66 -3 8 C-3 5.69 -3 3.38 -3 1 C-1 0 -1 0 0 0 Z " fill="#5FACDC" transform="translate(210,368)"/>
<path d="M0 0 C0.33 0.66 0.66 1.32 1 2 C0.06694014 4.71435596 -0.62673377 5.78043163 -3.125 7.25 C-3.74375 7.4975 -4.3625 7.745 -5 8 C-3.8141763 4.62496331 -2.72426311 2.35277269 0 0 Z " fill="#3B99D4" transform="translate(270,218)"/>
<path d="M0 0 C1.98 0 3.96 0 6 0 C6 0.99 6 1.98 6 3 C3.69 3 1.38 3 -1 3 C-0.67 2.01 -0.34 1.02 0 0 Z " fill="#61ADDC" transform="translate(479,102)"/>
</svg>
